<?xml version="1.0" encoding="UTF-8"?>
<svg width="1198px" height="1177px" viewBox="0 0 1198 1177" version="1.1" xmlns="http://www.w3.org/2000/svg" xmlns:xlink="http://www.w3.org/1999/xlink">
    <!-- Generator: Sketch 61 (89581) - https://sketch.com -->
    <title>trilemma</title>
    <desc>Created with Sketch.</desc>
    <g id="trilemma" stroke="none" stroke-width="1" fill="none" fill-rule="evenodd">
        <g id="Group-3" transform="translate(21.000000, 31.000000)">
            <g id="Group"></g>
            <path d="M578,0 C783.449927,0 950,166.550073 950,372 C950,384.092144 949.423048,396.049533 948.295171,407.846142 L948.078,410.047 L951.756285,411.883319 C1072.93077,473.211048 1156,598.904595 1156,744 C1156,949.449927 989.449927,1116 784,1116 C707.813977,1116 636.977126,1093.09747 577.998676,1053.80164 C519.023678,1093.09721 448.186456,1116 372,1116 C166.550073,1116 0,949.449927 0,744 C0,598.904595 83.0692254,473.211048 204.243715,411.883319 L207.921,410.047 L207.704829,407.846142 C206.576952,396.049533 206,384.092144 206,372 C206,166.550073 372.550073,0 578,0 Z M578.002329,434.19903 L573.642923,437.145069 C485.868263,497.432276 425.256772,594.403317 413.922755,705.943884 L413.922755,705.943884 L413.926624,705.955023 C463.417651,730.316292 519.110825,744 578,744 C636.889308,744 692.582601,730.31623 742.073712,705.954857 L742.073712,705.954857 L742.077143,705.942883 C730.556368,592.567427 668.123503,494.244882 578.002329,434.19903 L578.002329,434.19903 Z" id="Oval-Copy-5" fill-opacity="0.734156469" fill="#505050" opacity="0.609933036"></path>
            <path d="M578.002329,434.19903 C668.123503,494.244882 730.556368,592.567427 742.077143,705.942883 L742.073712,705.954857 C692.582601,730.31623 636.889308,744 578,744 C519.110825,744 463.417651,730.316292 413.926624,705.955023 L413.922755,705.943884 C425.256772,594.403317 485.868263,497.432276 573.642923,437.145069 Z" id="Oval-Copy-3" opacity="0.609933036"></path>
            <path d="M578,0 C783.449927,0 950,166.550073 950,372 C950,384.847903 949.348676,397.543681 948.077245,410.056116 L948.072714,410.044651 C1071.24413,470.673764 1156,597.438985 1156,744 C1156,949.449927 989.449927,1116 784,1116 C707.813977,1116 636.977126,1093.09747 577.998676,1053.80164 C678.069788,987.128116 744,873.263471 744,744 C744,731.152097 743.348676,718.456319 742.077245,705.943884 L742.072714,705.955349 C854.44662,650.641135 934.844968,540.277887 948.077245,410.056116 L948.072714,410.044651 C898.581852,385.683586 842.888912,372 784,372 C707.813977,372 636.977126,394.90253 577.998676,434.198361 C668.123768,494.245059 730.556736,592.568006 742.077245,705.943884 L742.072714,705.955349 C692.581852,730.316414 636.888912,744 578,744 C519.111088,744 463.418148,730.316414 413.927286,705.955349 L413.922755,705.943884 C425.443307,592.567585 487.876696,494.244329 577.998676,434.198361 C519.023678,394.90279 448.186456,372 372,372 C313.111088,372 257.418148,385.683586 207.927286,410.044651 L207.922755,410.056116 C221.155032,540.277887 301.55338,650.641135 413.927286,705.955349 L413.922755,705.943884 C412.651324,718.456319 412,731.152097 412,744 C412,873.263904 477.930653,987.128878 577.998676,1053.80164 C519.023678,1093.09721 448.186456,1116 372,1116 C166.550073,1116 0,949.449927 0,744 C0,597.438985 84.7558671,470.673764 207.927286,410.044651 L207.922755,410.056116 C206.651324,397.543681 206,384.847903 206,372 C206,166.550073 372.550073,0 578,0 Z" id="Oval-Copy-4" stroke-opacity="0.287478147" stroke="#000000" stroke-width="6" opacity="0.45014881"></path>
            <g id="Group-2" transform="translate(389.000000, 658.000000)" stroke="#000000" stroke-linecap="round" stroke-linejoin="round" stroke-width="2">
                <path d="M0,0 C1.3783951,10.7583214 6.41065316,23.4724288 15.0967742,38.1423221 C23.7828952,52.8122154 33.7506372,65.4314414 45,76" id="Line"></path>
                <line x1="45.4522793" y1="54" x2="45.5477207" y2="78" id="Line"></line>
                <line x1="20" y1="80" x2="45" y2="78" id="Line"></line>
            </g>
            <g id="Group-2-Copy" transform="translate(732.000000, 698.000000) scale(-1, 1) translate(-732.000000, -698.000000) translate(709.000000, 658.000000)" stroke="#000000" stroke-linecap="round" stroke-linejoin="round" stroke-width="2">
                <path d="M0,0 C0.467147754,10.359331 5.13381442,23.0259977 14,38 C22.8661856,52.9740023 33.1995189,65.640669 45,76" id="Line"></path>
                <line x1="45.4522793" y1="54" x2="45.5477207" y2="78" id="Line"></line>
                <line x1="20" y1="80" x2="45" y2="78" id="Line"></line>
            </g>
        </g>
        <g id="Native,-web-Runs-on" transform="translate(790.325868, 780.906778)" fill="#FFFFFF" fill-rule="nonzero">
            <path d="M11.6490144,46.0932225 L11.6490144,23.5494464 L11.900432,23.5494464 L27.4045159,46.0932225 L37.1259956,46.0932225 L37.1259956,3.18462265 L25.4769812,3.18462265 L25.4769812,25.6445929 L25.1417577,25.6445929 L9.88909137,3.18462265 L0,3.18462265 L0,46.0932225 L11.6490144,46.0932225 Z M49.8258424,46.5960577 C54.0161354,46.5960577 57.1798066,45.171358 59.1282928,41.5677061 L59.3797104,41.5677061 L59.3797104,46.0932225 L70.1906662,46.0932225 L70.1906662,24.0522816 C70.1906662,18.1020656 64.5547222,13.4927433 55.3570291,13.4927433 C45.7403068,13.4927433 41.0052758,18.5210949 40.6071979,24.387505 L51.250542,24.387505 C51.5229111,22.3971158 52.9895136,21.4542999 55.1894174,21.4542999 C57.200758,21.4542999 58.6254576,22.3761644 58.6254576,24.0522816 L58.6254576,24.1360874 C58.6254576,26.0007678 56.5722141,26.5874088 51.1667362,26.9854866 C44.5251218,27.4673703 39.35011,30.1491578 39.35011,37.2098014 C39.35011,43.6209497 43.6661118,46.5960577 49.8258424,46.5960577 Z M53.5971061,39.3049479 C51.6276684,39.3049479 50.2448717,38.3411805 50.2448717,36.5393546 C50.2448717,34.8841888 51.4181538,33.6061495 54.0999412,33.1871202 C55.9436701,32.8937997 57.4940785,32.5166733 58.7092635,32.0138382 L58.7092635,34.6956257 C58.7092635,37.6288307 56.2160392,39.3049479 53.5971061,39.3049479 Z M87.9187754,46.5541547 C90.5377085,46.4074945 92.4861947,45.8627564 93.5337679,45.5484844 L91.8576508,37.4193161 C91.41767,37.5240734 90.2862909,37.7545395 89.5948926,37.7545395 C88.0863871,37.7545395 87.4159402,37.0840926 87.4159402,35.7431989 L87.4159402,22.2923585 L92.9471269,22.2923585 L92.9471269,13.9117726 L87.4159402,13.9117726 L87.4159402,6.20163357 L75.8507317,6.20163357 L75.8507317,13.9117726 L71.7442446,13.9117726 L71.7442446,22.2923585 L75.8507317,22.2923585 L75.8507317,36.8326751 C75.7669258,43.5790467 79.9362673,46.9941355 87.9187754,46.5541547 Z M101.456466,10.5595382 C104.599186,10.5595382 107.155264,8.19202273 107.155264,5.27976912 C107.155264,2.36751552 104.599186,0 101.456466,0 C98.3137463,0 95.7576676,2.36751552 95.7576676,5.27976912 C95.7576676,8.19202273 98.3137463,10.5595382 101.456466,10.5595382 Z M107.23907,46.0932225 L107.23907,13.9117726 L95.6738617,13.9117726 L95.6738617,46.0932225 L107.23907,46.0932225 Z M132.760925,46.0932225 L143.571881,13.9117726 L131.420031,13.9117726 L126.224068,35.1984608 L125.888844,35.1984608 L120.692881,13.9117726 L108.541032,13.9117726 L119.351987,46.0932225 L132.760925,46.0932225 Z M159.288647,46.6798635 C168.213971,46.6798635 173.954673,42.4057647 175.044149,35.701296 L164.484611,35.701296 C163.814164,37.5240734 161.90758,38.5506952 159.540065,38.5506952 C156.104025,38.5506952 154.092684,36.287937 154.092684,33.1871202 L154.092684,32.684285 L175.044149,32.684285 L175.044149,30.0024976 C175.044149,19.7572313 168.758709,13.4927433 159.03723,13.4927433 C149.064333,13.4927433 142.695087,20.1134062 142.695087,30.0863034 C142.695087,40.4991814 148.980527,46.6798635 159.288647,46.6798635 Z M164.400805,26.3150398 L154.092684,26.3150398 C154.155538,23.5284949 156.4602,21.6219116 159.288647,21.6219116 C162.158998,21.6219116 164.33795,23.5494464 164.400805,26.3150398 Z M184.810713,56.5689549 C185.816383,54.2433423 188.393413,48.6283497 188.833394,42.5733764 L189.001006,40.2268124 L180.285197,40.2268124 L180.285197,42.5733764 C180.285197,48.2721748 178.357662,54.2433423 177.687215,56.5689549 L184.810713,56.5689549 Z M219.176968,46.0932225 L223.702484,28.8292155 L224.037708,28.8292155 L228.563224,46.0932225 L241.050297,46.0932225 L249.09566,13.9117726 L237.530451,13.9117726 L234.010605,33.3547319 L233.759187,33.3547319 L229.485089,13.9117726 L218.255104,13.9117726 L214.148616,33.5223436 L213.897199,33.5223436 L210.209741,13.9117726 L198.644533,13.9117726 L206.689895,46.0932225 L219.176968,46.0932225 Z M265.48306,46.6798635 C274.408384,46.6798635 280.149086,42.4057647 281.238562,35.701296 L270.679024,35.701296 C270.008577,37.5240734 268.101993,38.5506952 265.734478,38.5506952 C262.298438,38.5506952 260.287097,36.287937 260.287097,33.1871202 L260.287097,32.684285 L281.238562,32.684285 L281.238562,30.0024976 C281.238562,19.7572313 274.953122,13.4927433 265.231643,13.4927433 C255.258745,13.4927433 248.8895,20.1134062 248.8895,30.0863034 C248.8895,40.4991814 255.17494,46.6798635 265.48306,46.6798635 Z M270.595218,26.3150398 L260.287097,26.3150398 C260.349951,23.5284949 262.654613,21.6219116 265.48306,21.6219116 C268.353411,21.6219116 270.532363,23.5494464 270.595218,26.3150398 Z M304.497869,46.5122518 C311.36995,46.5122518 317.152554,41.1486768 317.152554,30.0024976 C317.152554,18.3534831 310.95092,13.4927433 304.581675,13.4927433 C299.804741,13.4927433 296.78773,16.2583367 295.530642,19.5267652 L295.363031,19.5267652 L295.363031,3.18462265 L283.797822,3.18462265 L283.797822,46.0932225 L295.279225,46.0932225 L295.279225,40.8134534 L295.530642,40.8134534 C296.871536,44.0818819 299.972353,46.5122518 304.497869,46.5122518 Z M300.22377,37.6288307 C297.039148,37.6288307 295.111613,34.6956257 295.111613,30.0024976 C295.111613,25.2255636 297.039148,22.3761644 300.22377,22.3761644 C303.408393,22.3761644 305.252122,25.2255636 305.252122,30.0024976 C305.252122,34.7794315 303.408393,37.6288307 300.22377,37.6288307 Z" id="Native,web"></path>
            <path d="M79.6739292,95.0932225 L79.6739292,87.3873448 L84.0488792,87.3873448 L84.0488792,87.3873448 L88.1851955,95.0932225 L91.6851554,95.0932225 L87.1710025,86.8504191 C89.6667126,85.9257138 90.9095961,83.8476126 90.9095961,81.1132689 C90.9095961,77.3647322 88.5829182,74.7298192 83.8599609,74.7298192 L76.6015212,74.7298192 L76.6015212,95.0932225 L79.6739292,95.0932225 Z M83.5716119,84.7424887 L79.6739292,84.7424887 L79.6739292,77.3647322 L83.5318396,77.3647322 C86.5644754,77.3647322 87.8173019,78.8064771 87.8173019,81.1132689 C87.8173019,83.4101176 86.5644754,84.7424887 83.5716119,84.7424887 Z M98.4976787,95.2920839 C100.794527,95.2920839 102.355589,94.0790296 103.061547,92.4483664 L103.220636,92.4483664 L103.220636,95.0932225 L106.143898,95.0932225 L106.143898,79.82067 L103.160978,79.82067 L103.160978,88.7594882 C103.170921,91.3546289 101.241965,92.5875694 99.57153,92.5875694 C97.7320625,92.5875694 96.4593498,91.2551982 96.4593498,89.177097 L96.4593498,79.82067 L93.4863724,79.82067 L93.4863724,89.5350475 C93.4863724,93.3233564 95.5644736,95.2920839 98.4976787,95.2920839 Z M112.170903,95.0932225 L112.170903,86.0251445 C112.170903,83.5890928 113.662363,82.1970633 115.730521,82.1970633 C117.748964,82.1970633 118.971961,83.5194913 118.971961,85.7367955 L118.971961,95.0932225 L121.944939,95.0932225 L121.944939,85.378845 C121.944939,81.6004792 119.866837,79.6218086 116.744714,79.6218086 C114.447865,79.6218086 112.946462,80.6857169 112.240504,82.306437 L112.051586,82.306437 L112.051586,79.82067 L109.197925,79.82067 L109.197925,95.0932225 L112.170903,95.0932225 Z M130.487541,95.4014576 C134.176419,95.4014576 136.731787,93.4426732 136.731787,90.6785003 C136.731787,88.5208545 135.359644,87.1884834 132.555699,86.542184 L130.12959,85.9853722 C128.449212,85.5876495 127.723368,85.0208946 127.733311,83.9868155 C127.723368,82.8135335 128.99608,81.9783158 130.686402,81.9783158 C132.535813,81.9783158 133.390916,83.0024518 133.738924,84.0265878 L136.433495,83.5493205 C135.817025,81.1729273 133.957671,79.6218086 130.656573,79.6218086 C127.206328,79.6218086 124.760333,81.4413901 124.760333,84.1459046 C124.760333,86.3134934 126.072818,87.7552383 128.936422,88.3915946 L131.52162,88.9583495 C132.993194,89.2864708 133.679265,89.9427133 133.679265,90.8972478 C133.679265,92.0804729 132.416496,93.0051782 130.467654,93.0051782 C128.687845,93.0051782 127.544392,92.239562 127.186442,90.7381587 L124.312895,91.1756537 C124.810049,93.8801682 127.057182,95.4014576 130.487541,95.4014576 Z M151.977397,95.4014576 C156.282746,95.4014576 159.096634,92.249505 159.096634,87.5265477 C159.096634,82.7737612 156.282746,79.6218086 151.977397,79.6218086 C147.672049,79.6218086 144.858161,82.7737612 144.858161,87.5265477 C144.858161,92.249505 147.672049,95.4014576 151.977397,95.4014576 Z M151.98734,92.9057475 C149.173452,92.9057475 147.860967,90.4498097 147.860967,87.5166047 C147.860967,84.5933427 149.173452,82.1075757 151.98734,82.1075757 C154.781342,82.1075757 156.093827,84.5933427 156.093827,87.5166047 C156.093827,90.4498097 154.781342,92.9057475 151.98734,92.9057475 Z M164.447513,95.0932225 L164.447513,86.0251445 C164.447513,83.5890928 165.938973,82.1970633 168.007131,82.1970633 C170.025574,82.1970633 171.248571,83.5194913 171.248571,85.7367955 L171.248571,95.0932225 L174.221549,95.0932225 L174.221549,85.378845 C174.221549,81.6004792 172.143447,79.6218086 169.021324,79.6218086 C166.724475,79.6218086 165.223072,80.6857169 164.517114,82.306437 L164.328196,82.306437 L164.328196,79.82067 L161.474535,79.82067 L161.474535,95.0932225 L164.447513,95.0932225 Z M191.555222,95.3915145 C195.254044,95.3915145 197.938672,92.4284803 197.938672,87.4867755 C197.938672,82.5351276 195.214272,79.6218086 191.525393,79.6218086 C188.691619,79.6218086 187.667483,81.3519025 187.1405,82.2964939 L186.961525,82.2964939 L186.961525,74.7298192 L183.988548,74.7298192 L183.988548,95.0932225 L186.891924,95.0932225 L186.891924,92.7168292 L187.1405,92.7168292 C187.677426,93.6912499 188.771163,95.3915145 191.555222,95.3915145 Z M190.889037,92.8560322 C188.333668,92.8560322 186.901867,90.6685572 186.901867,87.4569463 C186.901867,84.2652214 188.293896,82.1473479 190.889037,82.1473479 C193.583608,82.1473479 194.935866,84.4243105 194.935866,87.4569463 C194.935866,90.5194112 193.543836,92.8560322 190.889037,92.8560322 Z M206.769632,95.4014576 C211.074981,95.4014576 213.888869,92.249505 213.888869,87.5265477 C213.888869,82.7737612 211.074981,79.6218086 206.769632,79.6218086 C202.464284,79.6218086 199.650395,82.7737612 199.650395,87.5265477 C199.650395,92.249505 202.464284,95.4014576 206.769632,95.4014576 Z M206.779575,92.9057475 C203.965687,92.9057475 202.653202,90.4498097 202.653202,87.5166047 C202.653202,84.5933427 203.965687,82.1075757 206.779575,82.1075757 C209.573577,82.1075757 210.886062,84.5933427 210.886062,87.5166047 C210.886062,90.4498097 209.573577,92.9057475 206.779575,92.9057475 Z M221.745401,95.2920839 C222.689992,95.2821408 223.326348,95.1031656 223.674356,94.9739057 L223.13743,92.5179679 C222.938569,92.5577402 222.570675,92.6472278 222.093408,92.6472278 C221.12893,92.6472278 220.263883,92.3290496 220.263883,90.6088988 L220.263883,82.2070063 L223.39595,82.2070063 L223.39595,79.82067 L220.263883,79.82067 L220.263883,76.161621 L217.290906,76.161621 L217.290906,79.82067 L215.053716,79.82067 L215.053716,82.2070063 L217.290906,82.2070063 L217.290906,91.225369 C217.280963,93.999485 219.398837,95.3417992 221.745401,95.2920839 Z M229.035107,95.0932225 L229.035107,86.0251445 C229.035107,83.5890928 230.576283,82.1970633 232.694156,82.1970633 C234.742428,82.1970633 235.965426,83.4996052 235.965426,85.7367955 L235.965426,95.0932225 L238.938403,95.0932225 L238.938403,85.378845 C238.938403,81.57065 236.850359,79.6218086 233.708349,79.6218086 C231.331956,79.6218086 229.900154,80.6558877 229.184253,82.306437 L228.995335,82.306437 L228.995335,74.7298192 L226.06213,74.7298192 L226.06213,95.0932225 L229.035107,95.0932225 Z" id="Runsonboth" fill-opacity="0.671711101"></path>
        </g>
        <g id="Write-once-Single-co" transform="translate(447.175651, 218.906778)" fill="#FFFFFF" fill-rule="nonzero">
            <path d="M23.800864,46.0932225 L31.0919737,22.1247468 L31.4271972,22.1247468 L38.7183069,46.0932225 L49.8644862,46.0932225 L62.5191709,3.18462265 L49.5292627,3.18462265 L43.6628526,29.6672741 L43.3276291,29.6672741 L36.3717428,3.18462265 L26.147428,3.18462265 L19.1915417,29.5834683 L18.8563183,29.5834683 L12.9899082,3.18462265 L-1.13686838e-13,3.18462265 L12.6546847,46.0932225 L23.800864,46.0932225 Z M74.045963,46.0932225 L74.045963,29.3320507 C74.045963,25.6445929 76.5810902,23.214223 79.996179,23.214223 C81.1904125,23.214223 83.1179473,23.4027862 84.2702778,23.800864 L84.2702778,13.9327241 C83.3484134,13.660355 82.3427431,13.4927433 81.3370728,13.4927433 C77.9010325,13.4927433 75.219245,15.5040839 74.045963,20.0296003 L73.7107396,20.0296003 L73.7107396,13.9117726 L62.4807545,13.9117726 L62.4807545,46.0932225 L74.045963,46.0932225 Z M91.8577716,10.5595382 C95.0004913,10.5595382 97.55657,8.19202273 97.55657,5.27976912 C97.55657,2.36751552 95.0004913,0 91.8577716,0 C88.7150519,0 86.1589732,2.36751552 86.1589732,5.27976912 C86.1589732,8.19202273 88.7150519,10.5595382 91.8577716,10.5595382 Z M97.6403759,46.0932225 L97.6403759,13.9117726 L86.0751673,13.9117726 L86.0751673,46.0932225 L97.6403759,46.0932225 Z M115.703509,46.5541547 C118.322442,46.4074945 120.270928,45.8627564 121.318502,45.5484844 L119.642384,37.4193161 C119.202404,37.5240734 118.071025,37.7545395 117.379626,37.7545395 C115.871121,37.7545395 115.200674,37.0840926 115.200674,35.7431989 L115.200674,22.2923585 L120.731861,22.2923585 L120.731861,13.9117726 L115.200674,13.9117726 L115.200674,6.20163357 L103.635465,6.20163357 L103.635465,13.9117726 L99.5289782,13.9117726 L99.5289782,22.2923585 L103.635465,22.2923585 L103.635465,36.8326751 C103.551659,43.5790467 107.721001,46.9941355 115.703509,46.5541547 Z M138.543646,46.6798635 C147.46897,46.6798635 153.209672,42.4057647 154.299148,35.701296 L143.739609,35.701296 C143.069163,37.5240734 141.162579,38.5506952 138.795064,38.5506952 C135.359024,38.5506952 133.347683,36.287937 133.347683,33.1871202 L133.347683,32.684285 L154.299148,32.684285 L154.299148,30.0024976 C154.299148,19.7572313 148.013708,13.4927433 138.292229,13.4927433 C128.319331,13.4927433 121.950086,20.1134062 121.950086,30.0863034 C121.950086,40.4991814 128.235525,46.6798635 138.543646,46.6798635 Z M143.655804,26.3150398 L133.347683,26.3150398 C133.410537,23.5284949 135.715198,21.6219116 138.543646,21.6219116 C141.413997,21.6219116 143.592949,23.5494464 143.655804,26.3150398 Z M182.296391,46.6798635 C192.772124,46.6798635 198.973757,39.9753948 198.973757,30.0863034 C198.973757,20.197212 192.772124,13.4927433 182.296391,13.4927433 C171.820659,13.4927433 165.619025,20.197212 165.619025,30.0863034 C165.619025,39.9753948 171.820659,46.6798635 182.296391,46.6798635 Z M182.380197,38.1316659 C179.27938,38.1316659 177.435652,35.0518006 177.435652,30.0024976 C177.435652,24.9531945 179.27938,21.8733292 182.380197,21.8733292 C185.313402,21.8733292 187.157131,24.9531945 187.157131,30.0024976 C187.157131,35.0518006 185.313402,38.1316659 182.380197,38.1316659 Z M213.265849,46.0932225 L213.265849,27.9911569 C213.286801,24.8065343 215.088627,22.8789995 217.958977,22.8789995 C220.871231,22.8789995 222.589251,24.8065343 222.5683,27.9911569 L222.5683,46.0932225 L234.133582,46.0932225 L234.133582,25.560787 C234.15446,18.5629978 229.733701,13.4927433 222.903523,13.4927433 C218.168492,13.4927433 214.41818,15.9650162 213.014432,20.0296003 L212.679208,20.0296003 L212.679208,13.9117726 L201.700641,13.9117726 L201.700641,46.0932225 L213.265849,46.0932225 Z M253.37016,46.6798635 C262.903077,46.6798635 268.748535,41.2115312 268.874244,32.684285 L258.147094,32.684285 C257.895677,36.0574709 256.072899,37.8802483 253.537772,37.8802483 C250.49981,37.8802483 248.509421,35.2822667 248.509421,30.0024976 C248.509421,24.7227284 250.49981,22.1247468 253.537772,22.1247468 C256.093851,22.1247468 257.832822,23.9475242 258.147094,27.3207101 L268.874244,27.3207101 C268.81139,18.9401242 262.840222,13.4927433 253.37016,13.4927433 C242.894428,13.4927433 236.692794,20.197212 236.692794,30.0863034 C236.692794,39.9753948 242.894428,46.6798635 253.37016,46.6798635 Z M287.105199,46.6798635 C296.030523,46.6798635 301.771225,42.4057647 302.860701,35.701296 L292.301162,35.701296 C291.630716,37.5240734 289.724132,38.5506952 287.356617,38.5506952 C283.920577,38.5506952 281.909236,36.287937 281.909236,33.1871202 L281.909236,32.684285 L302.860701,32.684285 L302.860701,30.0024976 C302.860701,19.7572313 296.575261,13.4927433 286.853782,13.4927433 C276.880884,13.4927433 270.511639,20.1134062 270.511639,30.0863034 C270.511639,40.4991814 276.797079,46.6798635 287.105199,46.6798635 Z M292.217357,26.3150398 L281.909236,26.3150398 C281.97209,23.5284949 284.276751,21.6219116 287.105199,21.6219116 C289.97555,21.6219116 292.154502,23.5494464 292.217357,26.3150398 Z" id="Writeonce"></path>
            <path d="M56.1402962,95.4312868 C60.9229119,95.4312868 63.6771418,92.9156906 63.6771418,89.465446 C63.6771418,85.7964539 60.4058724,84.3745952 57.8206747,83.7382388 L55.8320611,83.2211993 C54.2411702,82.8135335 52.1232967,82.0678034 52.1332398,80.118962 C52.1332398,78.3888682 53.7141876,77.1062124 56.2198408,77.1062124 C58.5564617,77.1062124 60.2169541,78.1999499 60.4357016,80.0791898 L63.3987359,80.0791898 C63.3092483,76.8178635 60.4257585,74.4514133 56.2894422,74.4514133 C52.2028413,74.4514133 49.0707748,76.7880343 49.0707748,80.2979373 C49.0707748,83.1317117 51.0991607,84.792204 54.3704301,85.6771371 L56.7766526,86.3333796 C58.9541845,86.9100775 60.634563,87.6259784 60.634563,89.4356168 C60.634563,91.4242304 58.735437,92.7367154 56.1204101,92.7367154 C53.7539599,92.7367154 51.7852324,91.6827502 51.6062572,89.465446 L48.5239061,89.465446 C48.7227675,93.1543242 51.576428,95.4312868 56.1402962,95.4312868 Z M67.6757764,77.4641629 C68.6999124,77.4641629 69.5550162,76.6687174 69.5550162,75.6942968 C69.5550162,74.7198761 68.6999124,73.9144876 67.6757764,73.9144876 C66.6416973,73.9144876 65.7965365,74.7198761 65.7965365,75.6942968 C65.7965365,76.6687174 66.6416973,77.4641629 67.6757764,77.4641629 Z M69.1473504,95.0932225 L69.1473504,79.82067 L66.1743731,79.82067 L66.1743731,95.0932225 L69.1473504,95.0932225 Z M75.1841876,95.0932225 L75.1841876,86.0251445 C75.1841876,83.5890928 76.6756478,82.1970633 78.7438059,82.1970633 C80.7622487,82.1970633 81.9852461,83.5194913 81.9852461,85.7367955 L81.9852461,95.0932225 L84.9582234,95.0932225 L84.9582234,85.378845 C84.9582234,81.6004792 82.8801222,79.6218086 79.7579989,79.6218086 C77.4611501,79.6218086 75.9597469,80.6857169 75.253789,82.306437 L75.0648708,82.306437 L75.0648708,79.82067 L72.2112102,79.82067 L72.2112102,95.0932225 L75.1841876,95.0932225 Z M94.4056445,101.138608 C98.2933841,101.138608 101.296191,99.3587987 101.296191,95.4312868 L101.296191,79.82067 L98.3828717,79.82067 L98.3828717,82.2964939 L98.1641242,82.2964939 C97.6371416,81.3519025 96.5831764,79.6218086 93.739459,79.6218086 C90.0505807,79.6218086 87.3361232,82.5351276 87.3361232,87.3972878 C87.3361232,92.2693912 90.1102391,94.8645319 93.7195728,94.8645319 C96.523518,94.8645319 97.6073124,93.2835841 98.1442381,92.3091635 L98.3331564,92.3091635 L98.3331564,95.31197 C98.3331564,97.7082494 96.6925502,98.7423285 94.4354737,98.7423285 C91.9596498,98.7423285 90.9951722,97.499445 90.4681896,96.624455 L87.9128211,97.6784202 C88.7182096,99.547717 90.7565386,101.138608 94.4056445,101.138608 Z M94.3758153,92.3986511 C91.7210162,92.3986511 90.3389297,90.3603221 90.3389297,87.3575156 C90.3389297,84.4243105 91.691187,82.1473479 94.3758153,82.1473479 C96.9709561,82.1473479 98.3629856,84.2652214 98.3629856,87.3575156 C98.3629856,90.5094681 96.9411269,92.3986511 94.3758153,92.3986511 Z M107.323203,95.0932225 L107.323203,74.7298192 L104.350225,74.7298192 L104.350225,95.0932225 L107.323203,95.0932225 Z M116.969374,95.4014576 C120.300301,95.4014576 122.656808,93.7608514 123.332937,91.2750844 L120.519049,90.7679879 C119.982123,92.2097328 118.689524,92.9455198 116.999203,92.9455198 C114.453777,92.9455198 112.74357,91.2949705 112.664025,88.3518224 L123.521855,88.3518224 L123.521855,87.2978572 C123.521855,81.7794544 120.220757,79.6218086 116.760569,79.6218086 C112.504936,79.6218086 109.700991,82.8632488 109.700991,87.5563769 C109.700991,92.2992204 112.465164,95.4014576 116.969374,95.4014576 Z M120.608536,86.1245751 L112.673968,86.1245751 C112.793285,83.9569863 114.36429,82.0777465 116.780455,82.0777465 C119.087247,82.0777465 120.598593,83.7879542 120.608536,86.1245751 Z M138.817197,95.4014576 C142.426531,95.4014576 144.763152,93.2338688 145.091273,90.2608914 L142.19784,90.2608914 C141.820004,91.9114407 140.537348,92.8858614 138.837083,92.8858614 C136.321487,92.8858614 134.700767,90.787874 134.700767,87.4569463 C134.700767,84.1856769 136.351316,82.1274618 138.837083,82.1274618 C140.726266,82.1274618 141.879662,83.32063 142.19784,84.7524318 L145.091273,84.7524318 C144.773095,81.6700807 142.257499,79.6218086 138.787368,79.6218086 C134.48202,79.6218086 131.697961,82.8632488 131.697961,87.5265477 C131.697961,92.1301882 134.382589,95.4014576 138.817197,95.4014576 Z M153.783012,95.4014576 C158.08836,95.4014576 160.902248,92.249505 160.902248,87.5265477 C160.902248,82.7737612 158.08836,79.6218086 153.783012,79.6218086 C149.477663,79.6218086 146.663775,82.7737612 146.663775,87.5265477 C146.663775,92.249505 149.477663,95.4014576 153.783012,95.4014576 Z M153.792955,92.9057475 C150.979066,92.9057475 149.666581,90.4498097 149.666581,87.5166047 C149.666581,84.5933427 150.979066,82.1075757 153.792955,82.1075757 C156.586957,82.1075757 157.899442,84.5933427 157.899442,87.5166047 C157.899442,90.4498097 156.586957,92.9057475 153.792955,92.9057475 Z M168.997414,95.3915145 C171.781473,95.3915145 172.87521,93.6912499 173.412136,92.7168292 L173.660713,92.7168292 L173.660713,95.0932225 L176.564089,95.0932225 L176.564089,74.7298192 L173.591111,74.7298192 L173.591111,82.2964939 L173.412136,82.2964939 C172.87521,81.3519025 171.861017,79.6218086 169.0173,79.6218086 C165.328422,79.6218086 162.613964,82.5351276 162.613964,87.4867755 C162.613964,92.4284803 165.288649,95.3915145 168.997414,95.3915145 Z M169.653656,92.8560322 C166.998857,92.8560322 165.616771,90.5194112 165.616771,87.4569463 C165.616771,84.4243105 166.969028,82.1473479 169.653656,82.1473479 C172.248797,82.1473479 173.640827,84.2652214 173.640827,87.4569463 C173.640827,90.6685572 172.218968,92.8560322 169.653656,92.8560322 Z M186.449014,95.4014576 C189.779941,95.4014576 192.136449,93.7608514 192.812577,91.2750844 L189.998689,90.7679879 C189.461763,92.2097328 188.169164,92.9455198 186.478843,92.9455198 C183.933417,92.9455198 182.22321,91.2949705 182.143665,88.3518224 L193.001496,88.3518224 L193.001496,87.2978572 C193.001496,81.7794544 189.700397,79.6218086 186.240209,79.6218086 C181.984576,79.6218086 179.180631,82.8632488 179.180631,87.5563769 C179.180631,92.2992204 181.944804,95.4014576 186.449014,95.4014576 Z M190.088177,86.1245751 L182.153608,86.1245751 C182.272925,83.9569863 183.84393,82.0777465 186.260095,82.0777465 C188.566887,82.0777465 190.078234,83.7879542 190.088177,86.1245751 Z M203.1847,95.3915145 C206.883522,95.3915145 209.56815,92.4284803 209.56815,87.4867755 C209.56815,82.5351276 206.843749,79.6218086 203.154871,79.6218086 C200.321097,79.6218086 199.296961,81.3519025 198.769978,82.2964939 L198.591003,82.2964939 L198.591003,74.7298192 L195.618026,74.7298192 L195.618026,95.0932225 L198.521402,95.0932225 L198.521402,92.7168292 L198.769978,92.7168292 C199.306904,93.6912499 200.400641,95.3915145 203.1847,95.3915145 Z M202.518515,92.8560322 C199.963146,92.8560322 198.531345,90.6685572 198.531345,87.4569463 C198.531345,84.2652214 199.923374,82.1473479 202.518515,82.1473479 C205.213086,82.1473479 206.565344,84.4243105 206.565344,87.4569463 C206.565344,90.5194112 205.173314,92.8560322 202.518515,92.8560322 Z M216.410496,95.4312868 C218.936036,95.4312868 220.357894,94.148631 220.924649,93.0051782 L221.043966,93.0051782 L221.043966,95.0932225 L223.947342,95.0932225 L223.947342,84.9512931 C223.947342,80.5067417 220.447382,79.6218086 218.021274,79.6218086 C215.257101,79.6218086 212.711675,80.7354323 211.717368,83.5194913 L214.51137,84.1558477 C214.948865,83.0720533 216.062489,82.0280311 218.061046,82.0280311 C219.980058,82.0280311 220.964422,83.032281 220.964422,84.7623748 L220.964422,84.8319763 C220.964422,85.9157707 219.850798,85.8958846 217.106511,86.2140628 C214.213078,86.5521271 211.250044,87.3078002 211.250044,90.777931 C211.250044,93.7807375 213.507121,95.4312868 216.410496,95.4312868 Z M217.056796,93.0449505 C215.376417,93.0449505 214.163363,92.2892773 214.163363,90.8177032 C214.163363,89.2268124 215.575279,88.6600575 217.29543,88.4313669 C218.259907,88.302107 220.546813,88.0435873 220.974365,87.6160353 L220.974365,89.5847628 C220.974365,91.3944012 219.53262,93.0449505 217.056796,93.0449505 Z M232.470049,95.4014576 C236.158927,95.4014576 238.714296,93.4426732 238.714296,90.6785003 C238.714296,88.5208545 237.342152,87.1884834 234.538207,86.542184 L232.112098,85.9853722 C230.43172,85.5876495 229.705876,85.0208946 229.715819,83.9868155 C229.705876,82.8135335 230.978589,81.9783158 232.66891,81.9783158 C234.518321,81.9783158 235.373425,83.0024518 235.721432,84.0265878 L238.416003,83.5493205 C237.799533,81.1729273 235.94018,79.6218086 232.639081,79.6218086 C229.188836,79.6218086 226.742842,81.4413901 226.742842,84.1459046 C226.742842,86.3134934 228.055327,87.7552383 230.91893,88.3915946 L233.504128,88.9583495 C234.975702,89.2864708 235.661774,89.9427133 235.661774,90.8972478 C235.661774,92.0804729 234.399004,93.0051782 232.450163,93.0051782 C230.670354,93.0051782 229.526901,92.239562 229.16895,90.7381587 L226.295404,91.1756537 C226.792557,93.8801682 229.03969,95.4014576 232.470049,95.4014576 Z M247.624771,95.4014576 C250.955699,95.4014576 253.312206,93.7608514 253.988335,91.2750844 L251.174447,90.7679879 C250.637521,92.2097328 249.344922,92.9455198 247.6546,92.9455198 C245.109175,92.9455198 243.398967,91.2949705 243.319423,88.3518224 L254.177253,88.3518224 L254.177253,87.2978572 C254.177253,81.7794544 250.876155,79.6218086 247.415967,79.6218086 C243.160334,79.6218086 240.356389,82.8632488 240.356389,87.5563769 C240.356389,92.2992204 243.120561,95.4014576 247.624771,95.4014576 Z M251.263934,86.1245751 L243.329366,86.1245751 C243.448683,83.9569863 245.019687,82.0777465 247.435853,82.0777465 C249.742645,82.0777465 251.253991,83.7879542 251.263934,86.1245751 Z" id="Singlecodebase" fill-opacity="0.671711101"></path>
        </g>
        <g id="Feels-nice-Uses-nati" transform="translate(108.140830, 777.906778)" fill="#FFFFFF" fill-rule="nonzero">
            <path d="M11.6490144,46.0932225 L11.6490144,29.3320507 L28.3263804,29.3320507 L28.3263804,19.9457945 L11.6490144,19.9457945 L11.6490144,12.5708789 L30.1701093,12.5708789 L30.1701093,3.18462265 L-1.13686838e-13,3.18462265 L-1.13686838e-13,46.0932225 L11.6490144,46.0932225 Z M45.7192345,46.6798635 C54.6445585,46.6798635 60.3852598,42.4057647 61.474736,35.701296 L50.9151978,35.701296 C50.2447509,37.5240734 48.3381676,38.5506952 45.9706521,38.5506952 C42.5346118,38.5506952 40.5232712,36.287937 40.5232712,33.1871202 L40.5232712,32.684285 L61.474736,32.684285 L61.474736,30.0024976 C61.474736,19.7572313 55.1892966,13.4927433 45.4678169,13.4927433 C35.4949197,13.4927433 29.1256744,20.1134062 29.1256744,30.0863034 C29.1256744,40.4991814 35.4111138,46.6798635 45.7192345,46.6798635 Z M50.8313919,26.3150398 L40.5232712,26.3150398 C40.5861256,23.5284949 42.8907867,21.6219116 45.7192345,21.6219116 C48.5895852,21.6219116 50.7685375,23.5494464 50.8313919,26.3150398 Z M79.621886,46.6798635 C88.54721,46.6798635 94.2879113,42.4057647 95.3773875,35.701296 L84.8178493,35.701296 C84.1474024,37.5240734 82.2408191,38.5506952 79.8733036,38.5506952 C76.4372634,38.5506952 74.4259227,36.287937 74.4259227,33.1871202 L74.4259227,32.684285 L95.3773875,32.684285 L95.3773875,30.0024976 C95.3773875,19.7572313 89.0919481,13.4927433 79.3704684,13.4927433 C69.3975712,13.4927433 63.0283259,20.1134062 63.0283259,30.0863034 C63.0283259,40.4991814 69.3137653,46.6798635 79.621886,46.6798635 Z M84.7340434,26.3150398 L74.4259227,26.3150398 C74.4887771,23.5284949 76.7934383,21.6219116 79.621886,21.6219116 C82.4922367,21.6219116 84.671189,23.5494464 84.7340434,26.3150398 Z M109.669468,46.0932225 L109.669468,3.18462265 L98.1042594,3.18462265 L98.1042594,46.0932225 L109.669468,46.0932225 Z M128.319242,46.6798635 C137.223615,46.6798635 143.781423,42.3429103 143.823326,35.4498784 C143.781423,30.6938959 140.596801,27.9283025 134.018041,26.734069 L127.481184,25.560787 C125.029862,25.1208063 124.338464,24.2408447 124.380367,23.2980288 C124.338464,21.9571351 125.99363,21.2028823 127.984019,21.2028823 C130.267728,21.2028823 132.174312,22.4180673 132.341923,24.387505 L142.985268,24.387505 C142.691947,17.5782789 137.035052,13.4927433 127.732601,13.4927433 C118.534908,13.4927433 112.857061,17.264007 112.898964,23.9684757 C112.857061,29.0387302 116.146441,32.2862072 122.70425,33.4385378 L128.403048,34.4442081 C130.917224,34.9051403 132.048603,35.5755872 132.090506,36.7907721 C132.048603,38.1316659 130.519146,38.8859186 128.403048,38.8859186 C125.784115,38.8859186 123.940386,37.7545395 123.626114,35.701296 L112.144711,35.701296 C112.773255,42.3010074 118.472054,46.6798635 128.319242,46.6798635 Z M167.630263,46.0932225 L167.630263,27.9911569 C167.651215,24.8065343 169.453041,22.8789995 172.323392,22.8789995 C175.235645,22.8789995 176.953665,24.8065343 176.932714,27.9911569 L176.932714,46.0932225 L188.497997,46.0932225 L188.497997,25.560787 C188.518874,18.5629978 184.098115,13.4927433 177.267937,13.4927433 C172.532906,13.4927433 168.782594,15.9650162 167.378846,20.0296003 L167.043622,20.0296003 L167.043622,13.9117726 L156.065055,13.9117726 L156.065055,46.0932225 L167.630263,46.0932225 Z M198.013095,10.5595382 C201.155814,10.5595382 203.711893,8.19202273 203.711893,5.27976912 C203.711893,2.36751552 201.155814,0 198.013095,0 C194.870375,0 192.314296,2.36751552 192.314296,5.27976912 C192.314296,8.19202273 194.870375,10.5595382 198.013095,10.5595382 Z M203.795699,46.0932225 L203.795699,13.9117726 L192.230491,13.9117726 L192.230491,46.0932225 L203.795699,46.0932225 Z M223.199726,46.6798635 C232.732642,46.6798635 238.578101,41.2115312 238.70381,32.684285 L227.97666,32.684285 C227.725242,36.0574709 225.902465,37.8802483 223.367338,37.8802483 C220.329375,37.8802483 218.338986,35.2822667 218.338986,30.0024976 C218.338986,24.7227284 220.329375,22.1247468 223.367338,22.1247468 C225.923416,22.1247468 227.662388,23.9475242 227.97666,27.3207101 L238.70381,27.3207101 C238.640955,18.9401242 232.669788,13.4927433 223.199726,13.4927433 C212.723994,13.4927433 206.52236,20.197212 206.52236,30.0863034 C206.52236,39.9753948 212.723994,46.6798635 223.199726,46.6798635 Z M256.934765,46.6798635 C265.860089,46.6798635 271.60079,42.4057647 272.690266,35.701296 L262.130728,35.701296 C261.460281,37.5240734 259.553698,38.5506952 257.186182,38.5506952 C253.750142,38.5506952 251.738802,36.287937 251.738802,33.1871202 L251.738802,32.684285 L272.690266,32.684285 L272.690266,30.0024976 C272.690266,19.7572313 266.404827,13.4927433 256.683347,13.4927433 C246.71045,13.4927433 240.341205,20.1134062 240.341205,30.0863034 C240.341205,40.4991814 246.626644,46.6798635 256.934765,46.6798635 Z M262.046922,26.3150398 L251.738802,26.3150398 C251.801656,23.5284949 254.106317,21.6219116 256.934765,21.6219116 C259.805115,21.6219116 261.984068,23.5494464 262.046922,26.3150398 Z" id="Feelsnice"></path>
            <path d="M8.13353096,105.431287 C13.0155774,105.431287 16.2271883,102.398651 16.2271883,98.1231318 L16.2271883,84.7298192 L13.1448372,84.7298192 L13.1448372,97.8745551 C13.1448372,100.638728 11.2357682,102.627342 8.13353096,102.627342 C5.0412368,102.627342 3.12222467,100.638728 3.12222467,97.8745551 L3.12222467,84.7298192 L0.0498166532,84.7298192 L0.0498166532,98.1231318 C0.0498166532,102.398651 3.25148456,105.431287 8.13353096,105.431287 Z M25.0283549,105.401458 C28.7172332,105.401458 31.2726017,103.442673 31.2726017,100.6785 C31.2726017,98.5208545 29.9004583,97.1884834 27.0965131,96.542184 L24.6704045,95.9853722 C22.990026,95.5876495 22.264182,95.0208946 22.2741251,93.9868155 C22.264182,92.8135335 23.5368947,91.9783158 25.2272163,91.9783158 C27.076627,91.9783158 27.9317308,93.0024518 28.2797382,94.0265878 L30.9743096,93.5493205 C30.3578394,91.1729273 28.4984857,89.6218086 25.1973871,89.6218086 C21.7471425,89.6218086 19.3011478,91.4413901 19.3011478,94.1459046 C19.3011478,96.3134934 20.6136327,97.7552383 23.4772363,98.3915946 L26.062434,98.9583495 C27.5340081,99.2864708 28.2200798,99.9427133 28.2200798,100.897248 C28.2200798,102.080473 26.9573101,103.005178 25.0084688,103.005178 C23.2286596,103.005178 22.0852068,102.239562 21.7272564,100.738159 L18.8537097,101.175654 C19.3508631,103.880168 21.5979965,105.401458 25.0283549,105.401458 Z M40.1830774,105.401458 C43.5140052,105.401458 45.8705123,103.760851 46.5466409,101.275084 L43.7327527,100.767988 C43.195827,102.209733 41.9032282,102.94552 40.2129066,102.94552 C37.6674812,102.94552 35.9572735,101.294971 35.8777289,98.3518224 L46.7355592,98.3518224 L46.7355592,97.2978572 C46.7355592,91.7794544 43.4344606,89.6218086 39.974273,89.6218086 C35.7186398,89.6218086 32.9146947,92.8632488 32.9146947,97.5563769 C32.9146947,102.29922 35.6788676,105.401458 40.1830774,105.401458 Z M43.8222403,96.1245751 L35.887672,96.1245751 C36.0069888,93.9569863 37.5779936,92.0777465 39.9941591,92.0777465 C42.3009509,92.0777465 43.8122972,93.7879542 43.8222403,96.1245751 Z M54.6119724,105.401458 C58.3008506,105.401458 60.8562191,103.442673 60.8562191,100.6785 C60.8562191,98.5208545 59.4840757,97.1884834 56.6801305,96.542184 L54.2540219,95.9853722 C52.5736434,95.5876495 51.8477995,95.0208946 51.8577425,93.9868155 C51.8477995,92.8135335 53.1205122,91.9783158 54.8108337,91.9783158 C56.6602444,91.9783158 57.5153482,93.0024518 57.8633556,94.0265878 L60.557927,93.5493205 C59.9414568,91.1729273 58.0821031,89.6218086 54.7810045,89.6218086 C51.3307599,89.6218086 48.8847652,91.4413901 48.8847652,94.1459046 C48.8847652,96.3134934 50.1972502,97.7552383 53.0608538,98.3915946 L55.6460514,98.9583495 C57.1176255,99.2864708 57.8036972,99.9427133 57.8036972,100.897248 C57.8036972,102.080473 56.5409276,103.005178 54.5920862,103.005178 C52.8122771,103.005178 51.6688242,102.239562 51.3108738,100.738159 L48.4373271,101.175654 C48.9344805,103.880168 51.1816139,105.401458 54.6119724,105.401458 Z M72.6416414,105.093222 L72.6416414,96.0251445 C72.6416414,93.5890928 74.1331016,92.1970633 76.2012598,92.1970633 C78.2197026,92.1970633 79.4427,93.5194913 79.4427,95.7367955 L79.4427,105.093222 L82.4156773,105.093222 L82.4156773,95.378845 C82.4156773,91.6004792 80.3375761,89.6218086 77.2154527,89.6218086 C74.918604,89.6218086 73.4172007,90.6857169 72.7112429,92.306437 L72.5223246,92.306437 L72.5223246,89.82067 L69.6686641,89.82067 L69.6686641,105.093222 L72.6416414,105.093222 Z M89.904314,105.431287 C92.4298533,105.431287 93.851712,104.148631 94.4184669,103.005178 L94.5377837,103.005178 L94.5377837,105.093222 L97.4411595,105.093222 L97.4411595,94.9512931 C97.4411595,90.5067417 93.9411996,89.6218086 91.515091,89.6218086 C88.7509181,89.6218086 86.2054927,90.7354323 85.2111859,93.5194913 L88.005188,94.1558477 C88.442683,93.0720533 89.5563066,92.0280311 91.5548633,92.0280311 C93.4738754,92.0280311 94.4582391,93.032281 94.4582391,94.7623748 L94.4582391,94.8319763 C94.4582391,95.9157707 93.3446155,95.8958846 90.6003287,96.2140628 C87.7068959,96.5521271 84.7438617,97.3078002 84.7438617,100.777931 C84.7438617,103.780738 87.0009381,105.431287 89.904314,105.431287 Z M90.5506134,103.04495 C88.8702349,103.04495 87.6571806,102.289277 87.6571806,100.817703 C87.6571806,99.2268124 89.0690963,98.6600575 90.789247,98.4313669 C91.7537246,98.302107 94.0406303,98.0435873 94.4681822,97.6160353 L94.4681822,99.5847628 C94.4681822,101.394401 93.0264373,103.04495 90.5506134,103.04495 Z M105.94398,105.292084 C106.888572,105.282141 107.524928,105.103166 107.872935,104.973906 L107.33601,102.517968 C107.137148,102.55774 106.769255,102.647228 106.291988,102.647228 C105.32751,102.647228 104.462463,102.32905 104.462463,100.608899 L104.462463,92.2070063 L107.594529,92.2070063 L107.594529,89.82067 L104.462463,89.82067 L104.462463,86.161621 L101.489486,86.161621 L101.489486,89.82067 L99.2522954,89.82067 L99.2522954,92.2070063 L101.489486,92.2070063 L101.489486,101.225369 C101.479543,103.999485 103.597416,105.341799 105.94398,105.292084 Z M111.443931,87.4641629 C112.468067,87.4641629 113.323171,86.6687174 113.323171,85.6942968 C113.323171,84.7198761 112.468067,83.9144876 111.443931,83.9144876 C110.409852,83.9144876 109.564691,84.7198761 109.564691,85.6942968 C109.564691,86.6687174 110.409852,87.4641629 111.443931,87.4641629 Z M112.915505,105.093222 L112.915505,89.82067 L109.942528,89.82067 L109.942528,105.093222 L112.915505,105.093222 Z M123.506267,105.093222 L129.044556,89.82067 L125.852831,89.82067 L121.994921,101.573376 L121.835832,101.573376 L117.967978,89.82067 L114.776254,89.82067 L120.324486,105.093222 L123.506267,105.093222 Z M136.950786,105.401458 C140.281714,105.401458 142.638221,103.760851 143.314349,101.275084 L140.500461,100.767988 C139.963535,102.209733 138.670936,102.94552 136.980615,102.94552 C134.43519,102.94552 132.724982,101.294971 132.645437,98.3518224 L143.503268,98.3518224 L143.503268,97.2978572 C143.503268,91.7794544 140.202169,89.6218086 136.741981,89.6218086 C132.486348,89.6218086 129.682403,92.8632488 129.682403,97.5563769 C129.682403,102.29922 132.446576,105.401458 136.950786,105.401458 Z M140.589949,96.1245751 L132.65538,96.1245751 C132.774697,93.9569863 134.345702,92.0777465 136.761867,92.0777465 C139.068659,92.0777465 140.580006,93.7879542 140.589949,96.1245751 Z M155.338422,110.82043 L155.338422,102.716829 L155.517397,102.716829 C156.054323,103.69125 157.14806,105.391515 159.932119,105.391515 C163.63094,105.391515 166.315569,102.42848 166.315569,97.4867755 C166.315569,92.5351276 163.591168,89.6218086 159.90229,89.6218086 C157.068516,89.6218086 156.04438,91.3519025 155.517397,92.2964939 L155.26882,92.2964939 L155.26882,89.82067 L152.365444,89.82067 L152.365444,110.82043 L155.338422,110.82043 Z M159.265934,102.856032 C156.710565,102.856032 155.278763,100.668557 155.278763,97.4569463 C155.278763,94.2652214 156.670793,92.1473479 159.265934,92.1473479 C161.960505,92.1473479 163.312762,94.4243105 163.312762,97.4569463 C163.312762,100.519411 161.920733,102.856032 159.265934,102.856032 Z M171.686338,105.093222 L171.686338,95.7666247 C171.686338,93.768068 173.227514,92.3263232 175.335444,92.3263232 C175.951915,92.3263232 176.647929,92.4356969 176.886563,92.5052984 L176.886563,89.6615809 C176.588271,89.6218086 176.00163,89.5919794 175.623793,89.5919794 C173.834041,89.5919794 172.302809,90.6061724 171.745997,92.2467786 L171.586908,92.2467786 L171.586908,89.82067 L168.713361,89.82067 L168.713361,105.093222 L171.686338,105.093222 Z M180.039954,87.4641629 C181.06409,87.4641629 181.919194,86.6687174 181.919194,85.6942968 C181.919194,84.7198761 181.06409,83.9144876 180.039954,83.9144876 C179.005875,83.9144876 178.160714,84.7198761 178.160714,85.6942968 C178.160714,86.6687174 179.005875,87.4641629 180.039954,87.4641629 Z M181.511528,105.093222 L181.511528,89.82067 L178.53855,89.82067 L178.53855,105.093222 L181.511528,105.093222 Z M187.548365,105.093222 L187.548365,95.6771371 C187.548365,93.618922 188.99011,92.1871202 190.680431,92.1871202 C192.330981,92.1871202 193.474433,93.2808577 193.474433,94.94135 L193.474433,105.093222 L196.437468,105.093222 L196.437468,95.3589589 C196.437468,93.5194913 197.561034,92.1871202 199.499933,92.1871202 C201.070937,92.1871202 202.363536,93.0621102 202.363536,95.1302683 L202.363536,105.093222 L205.336514,105.093222 L205.336514,94.8518624 C205.336514,91.3618456 203.387672,89.6218086 200.623499,89.6218086 C198.426081,89.6218086 196.775532,90.6757739 196.039745,92.306437 L195.880656,92.306437 C195.21447,90.6360016 193.812498,89.6218086 191.774169,89.6218086 C189.755726,89.6218086 188.254323,90.6260585 187.617966,92.306437 L187.429048,92.306437 L187.429048,89.82067 L184.575388,89.82067 L184.575388,105.093222 L187.548365,105.093222 Z M209.882094,87.4641629 C210.90623,87.4641629 211.761334,86.6687174 211.761334,85.6942968 C211.761334,84.7198761 210.90623,83.9144876 209.882094,83.9144876 C208.848015,83.9144876 208.002854,84.7198761 208.002854,85.6942968 C208.002854,86.6687174 208.848015,87.4641629 209.882094,87.4641629 Z M211.353668,105.093222 L211.353668,89.82067 L208.380691,89.82067 L208.380691,105.093222 L211.353668,105.093222 Z M219.896158,105.292084 C220.84075,105.282141 221.477106,105.103166 221.825113,104.973906 L221.288188,102.517968 C221.089326,102.55774 220.721433,102.647228 220.244166,102.647228 C219.279688,102.647228 218.414641,102.32905 218.414641,100.608899 L218.414641,92.2070063 L221.546707,92.2070063 L221.546707,89.82067 L218.414641,89.82067 L218.414641,86.161621 L215.441664,86.161621 L215.441664,89.82067 L213.204473,89.82067 L213.204473,92.2070063 L215.441664,92.2070063 L215.441664,101.225369 C215.431721,103.999485 217.549594,105.341799 219.896158,105.292084 Z M225.396109,87.4641629 C226.420245,87.4641629 227.275349,86.6687174 227.275349,85.6942968 C227.275349,84.7198761 226.420245,83.9144876 225.396109,83.9144876 C224.36203,83.9144876 223.516869,84.7198761 223.516869,85.6942968 C223.516869,86.6687174 224.36203,87.4641629 225.396109,87.4641629 Z M226.867683,105.093222 L226.867683,89.82067 L223.894706,89.82067 L223.894706,105.093222 L226.867683,105.093222 Z M237.458445,105.093222 L242.996734,89.82067 L239.805009,89.82067 L235.947099,101.573376 L235.78801,101.573376 L231.920156,89.82067 L228.728432,89.82067 L234.276664,105.093222 L237.458445,105.093222 Z M250.902964,105.401458 C254.233892,105.401458 256.590399,103.760851 257.266527,101.275084 L254.452639,100.767988 C253.915713,102.209733 252.623115,102.94552 250.932793,102.94552 C248.387368,102.94552 246.67716,101.294971 246.597615,98.3518224 L257.455446,98.3518224 L257.455446,97.2978572 C257.455446,91.7794544 254.154347,89.6218086 250.694159,89.6218086 C246.438526,89.6218086 243.634581,92.8632488 243.634581,97.5563769 C243.634581,102.29922 246.398754,105.401458 250.902964,105.401458 Z M254.542127,96.1245751 L246.607558,96.1245751 C246.726875,93.9569863 248.29788,92.0777465 250.714045,92.0777465 C253.020837,92.0777465 254.532184,93.7879542 254.542127,96.1245751 Z M265.331859,105.401458 C269.020737,105.401458 271.576105,103.442673 271.576105,100.6785 C271.576105,98.5208545 270.203962,97.1884834 267.400017,96.542184 L264.973908,95.9853722 C263.29353,95.5876495 262.567686,95.0208946 262.577629,93.9868155 C262.567686,92.8135335 263.840399,91.9783158 265.53072,91.9783158 C267.380131,91.9783158 268.235235,93.0024518 268.583242,94.0265878 L271.277813,93.5493205 C270.661343,91.1729273 268.801989,89.6218086 265.500891,89.6218086 C262.050646,89.6218086 259.604652,91.4413901 259.604652,94.1459046 C259.604652,96.3134934 260.917137,97.7552383 263.78074,98.3915946 L266.365938,98.9583495 C267.837512,99.2864708 268.523584,99.9427133 268.523584,100.897248 C268.523584,102.080473 267.260814,103.005178 265.311973,103.005178 C263.532163,103.005178 262.388711,102.239562 262.03076,100.738159 L259.157213,101.175654 C259.654367,103.880168 261.9015,105.401458 265.331859,105.401458 Z" id="Usesnativeprimitives" fill-opacity="0.671711101"></path>
        </g>
        <path d="M719.854294,512 L719.854294,502.637891 L722.513355,502.637891 L727.499093,512 L735.864054,512 L730.102757,501.419155 C733.121898,499.964981 734.922304,497.208976 734.922304,493.275782 C734.922304,487.237499 730.698275,483.636688 724.396856,483.636688 L712.154098,483.636688 L712.154098,512 L719.854294,512 Z M722.568752,496.655005 L719.854294,496.655005 L719.854294,489.785766 L722.568752,489.785766 C725.26936,489.785766 726.889725,490.83831 726.889725,493.275782 C726.889725,495.699405 725.26936,496.655005 722.568752,496.655005 Z M744.725035,512.276985 C747.896518,512.276985 750.333991,510.67047 751.261892,507.956012 L751.48348,507.956012 L751.48348,512 L758.7405,512 L758.7405,490.727516 L751.095701,490.727516 L751.095701,502.693288 C751.10955,504.798378 749.890814,506.072511 747.993463,506.072511 C746.068414,506.072511 744.960473,504.798378 744.946623,502.693288 L744.946623,490.727516 L737.301824,490.727516 L737.301824,504.299804 C737.315674,508.95316 740.25172,512.276985 744.725035,512.276985 Z M769.263385,512 L769.263385,500.034228 C769.277234,497.929138 770.468271,496.655005 772.365622,496.655005 C774.290671,496.655005 775.426311,497.929138 775.412462,500.034228 L775.412462,512 L783.05731,512 L783.05731,498.427712 C783.07111,493.802055 780.148913,490.450531 775.63405,490.450531 C772.504115,490.450531 770.025095,492.084745 769.097193,494.771504 L768.875605,494.771504 L768.875605,490.727516 L761.618586,490.727516 L761.618586,512 L769.263385,512 Z M795.57444,512.38778 C801.460381,512.38778 805.795204,509.52098 805.822902,504.964569 C805.795204,501.820784 803.690114,499.99268 799.341442,499.203271 L795.020469,498.427712 C793.400104,498.136877 792.943078,497.555208 792.970777,496.931991 C792.943078,496.045637 794.037171,495.547063 795.352852,495.547063 C796.862423,495.547063 798.122706,496.350321 798.233501,497.652153 L805.268931,497.652153 C805.075042,493.151139 801.335738,490.450531 795.18666,490.450531 C789.106829,490.450531 785.353676,492.9434 785.381375,497.375167 C785.353676,500.726692 787.528012,502.873329 791.862835,503.635039 L795.629837,504.299804 C797.29175,504.604488 798.039611,505.047665 798.067309,505.850923 C798.039611,506.737276 797.028614,507.23585 795.629837,507.23585 C793.898678,507.23585 792.679942,506.487989 792.472203,505.13076 L784.882801,505.13076 C785.298279,509.493282 789.065282,512.38778 795.57444,512.38778 Z M824.264781,512.38778 C830.150722,512.38778 834.485545,509.52098 834.513243,504.964569 C834.485545,501.820784 832.380455,499.99268 828.031783,499.203271 L823.71081,498.427712 C822.090445,498.136877 821.633419,497.555208 821.661118,496.931991 C821.633419,496.045637 822.727512,495.547063 824.043193,495.547063 C825.552763,495.547063 826.813047,496.350321 826.923841,497.652153 L833.959272,497.652153 C833.765383,493.151139 830.026079,490.450531 823.877001,490.450531 C817.79717,490.450531 814.044017,492.9434 814.071716,497.375167 C814.044017,500.726692 816.218353,502.873329 820.553176,503.635039 L824.320178,504.299804 C825.982091,504.604488 826.729952,505.047665 826.75765,505.850923 C826.729952,506.737276 825.718955,507.23585 824.320178,507.23585 C822.589019,507.23585 821.370283,506.487989 821.162544,505.13076 L813.573142,505.13076 C813.98862,509.493282 817.755623,512.38778 824.264781,512.38778 Z M844.094351,512 L844.094351,483.636688 L836.449552,483.636688 L836.449552,512 L844.094351,512 Z M857.220741,512.38778 C864.145378,512.38778 868.244763,507.956012 868.244763,501.419155 C868.244763,494.882298 864.145378,490.450531 857.220741,490.450531 C850.296105,490.450531 846.19672,494.882298 846.19672,501.419155 C846.19672,507.956012 850.296105,512.38778 857.220741,512.38778 Z M857.276138,506.737276 C855.226446,506.737276 854.00771,504.701433 854.00771,501.363758 C854.00771,498.026083 855.226446,495.99024 857.276138,495.99024 C859.215037,495.99024 860.433773,498.026083 860.433773,501.363758 C860.433773,504.701433 859.215037,506.737276 857.276138,506.737276 Z M881.980664,512 L884.972107,500.588199 L885.193696,500.588199 L888.185139,512 L896.439305,512 L901.757426,490.727516 L894.112628,490.727516 L891.78595,503.579642 L891.619758,503.579642 L888.794507,490.727516 L881.371296,490.727516 L878.656839,503.690436 L878.490647,503.690436 L876.053175,490.727516 L868.408376,490.727516 L873.726497,512 L881.980664,512 Z M904.857169,518.924637 C905.521934,517.387367 907.225395,513.675762 907.516229,509.673322 L907.627024,508.122203 L901.865726,508.122203 L901.865726,509.673322 C901.865726,513.440324 900.591593,517.387367 900.148416,518.924637 L904.857169,518.924637 Z M740.628428,556 L740.628428,540.267226 L744.506224,540.267226 L744.506224,534.727516 L740.628428,534.727516 L740.628428,533.785766 C740.628428,532.788618 741.016207,532.123853 742.456532,532.123853 C743.010503,532.123853 743.841459,532.234647 744.39543,532.400838 L745.503372,526.916526 C744.617018,526.694938 742.567326,526.307158 740.628428,526.307158 C735.975072,526.307158 732.983629,528.855424 732.983629,534.118148 L732.983629,534.727516 L730.269171,534.727516 L730.269171,540.267226 L732.983629,540.267226 L732.983629,556 L740.628428,556 Z M755.970742,556.38778 C761.870532,556.38778 765.665233,553.562528 766.385395,549.13076 L759.405362,549.13076 C758.962185,550.335647 757.701901,551.014262 756.136933,551.014262 C753.865652,551.014262 752.536122,549.51854 752.536122,547.468848 L752.536122,547.136465 L766.385395,547.136465 L766.385395,545.363758 C766.385395,538.591463 762.230613,534.450531 755.804551,534.450531 C749.212296,534.450531 745.002117,538.826901 745.002117,545.419155 C745.002117,552.302244 749.156899,556.38778 755.970742,556.38778 Z M759.349965,542.926286 L752.536122,542.926286 C752.57767,541.084333 754.10109,539.824049 755.970742,539.824049 C757.868092,539.824049 759.308417,541.098182 759.349965,542.926286 Z M778.680969,556.38778 C784.58076,556.38778 788.37546,553.562528 789.095623,549.13076 L782.115589,549.13076 C781.672412,550.335647 780.412128,551.014262 778.84716,551.014262 C776.57588,551.014262 775.246349,549.51854 775.246349,547.468848 L775.246349,547.136465 L789.095623,547.136465 L789.095623,545.363758 C789.095623,538.591463 784.940841,534.450531 778.514778,534.450531 C771.922524,534.450531 767.712345,538.826901 767.712345,545.419155 C767.712345,552.302244 771.867127,556.38778 778.680969,556.38778 Z M782.060192,542.926286 L775.246349,542.926286 C775.287897,541.084333 776.811317,539.824049 778.680969,539.824049 C780.57832,539.824049 782.018644,541.098182 782.060192,542.926286 Z M798.84293,556 L798.84293,527.636688 L791.198131,527.636688 L791.198131,556 L798.84293,556 Z M811.470747,556.38778 C817.356688,556.38778 821.691511,553.52098 821.719209,548.964569 C821.691511,545.820784 819.586421,543.99268 815.237749,543.203271 L810.916776,542.427712 C809.296411,542.136877 808.839385,541.555208 808.867084,540.931991 C808.839385,540.045637 809.933478,539.547063 811.249159,539.547063 C812.758729,539.547063 814.019013,540.350321 814.129807,541.652153 L821.165238,541.652153 C820.971348,537.151139 817.232045,534.450531 811.082967,534.450531 C805.003136,534.450531 801.249983,536.9434 801.277682,541.375167 C801.249983,544.726692 803.424319,546.873329 807.759142,547.635039 L811.526144,548.299804 C813.188057,548.604488 813.935918,549.047665 813.963616,549.850923 C813.935918,550.737276 812.924921,551.23585 811.526144,551.23585 C809.794985,551.23585 808.576249,550.487989 808.36851,549.13076 L800.779108,549.13076 C801.194586,553.493282 804.961588,556.38778 811.470747,556.38778 Z M840.659662,556.38778 C847.584298,556.38778 851.683683,551.956012 851.683683,545.419155 C851.683683,538.882298 847.584298,534.450531 840.659662,534.450531 C833.735025,534.450531 829.63564,538.882298 829.63564,545.419155 C829.63564,551.956012 833.735025,556.38778 840.659662,556.38778 Z M840.715059,550.737276 C838.665366,550.737276 837.44663,548.701433 837.44663,545.363758 C837.44663,542.026083 838.665366,539.99024 840.715059,539.99024 C842.653957,539.99024 843.872693,542.026083 843.872693,545.363758 C843.872693,548.701433 842.653957,550.737276 840.715059,550.737276 Z M862.649734,556 L862.649734,540.267226 L866.527531,540.267226 L866.527531,534.727516 L862.649734,534.727516 L862.649734,533.785766 C862.649734,532.788618 863.037514,532.123853 864.477838,532.123853 C865.031809,532.123853 865.862766,532.234647 866.416737,532.400838 L867.524679,526.916526 C866.638325,526.694938 864.588633,526.307158 862.649734,526.307158 C857.996378,526.307158 855.004935,528.855424 855.004935,534.118148 L855.004935,534.727516 L852.290478,534.727516 L852.290478,540.267226 L855.004935,540.267226 L855.004935,556 L862.649734,556 Z M877.327291,556 L877.327291,540.267226 L881.205088,540.267226 L881.205088,534.727516 L877.327291,534.727516 L877.327291,533.785766 C877.327291,532.788618 877.715071,532.123853 879.155395,532.123853 C879.709366,532.123853 880.540323,532.234647 881.094293,532.400838 L882.202235,526.916526 C881.315882,526.694938 879.266189,526.307158 877.327291,526.307158 C872.673935,526.307158 869.682492,528.855424 869.682492,534.118148 L869.682492,534.727516 L866.968035,534.727516 L866.968035,540.267226 L869.682492,540.267226 L869.682492,556 L877.327291,556 Z M885.080186,556.443177 C887.116029,556.443177 888.930284,554.725867 888.957982,552.56538 C888.930284,550.460291 887.116029,548.742981 885.080186,548.742981 C882.933549,548.742981 881.174691,550.460291 881.202389,552.56538 C881.174691,554.725867 882.933549,556.443177 885.080186,556.443177 Z" id="Runsslow,feelsoff." fill="#FFFFFF" fill-rule="nonzero"></path>
        <path d="M290.443739,502.332383 C297.631512,502.332383 301.938636,499.230145 301.966335,493.635039 C301.938636,489.314066 299.362671,486.281075 293.1028,484.937695 L290.776122,484.439121 C288.089363,483.871301 286.884476,483.081893 286.953722,481.724664 C286.967572,480.478229 288.006267,479.564177 290.388342,479.564177 C292.881211,479.564177 294.0584,480.65827 294.210742,482.500223 L301.578555,482.500223 C301.550856,476.932815 297.257582,473.248909 290.388342,473.248909 C283.643746,473.248909 278.879596,476.877418 278.921144,482.278635 C278.907295,486.710402 281.981833,489.175573 287.009119,490.255816 L289.834371,490.865184 C292.992006,491.557648 294.072249,492.347056 294.099947,493.635039 C294.072249,495.033816 292.798116,496.017114 290.332945,496.017114 C287.38305,496.017114 285.638041,494.632187 285.513398,492.028523 L278.200982,492.028523 C278.22868,499.14705 283.048227,502.332383 290.443739,502.332383 Z M311.658271,502 L311.658271,490.034228 C311.67212,487.929138 312.890856,486.655005 314.760508,486.655005 C316.713256,486.655005 317.821198,487.929138 317.807348,490.034228 L317.807348,502 L325.452196,502 L325.452196,488.427712 C325.465997,483.774356 322.529951,480.450531 318.028937,480.450531 C314.885152,480.450531 312.558474,482.057046 311.602874,484.771504 L311.381286,484.771504 L311.381286,473.636688 L304.013472,473.636688 L304.013472,502 L311.658271,502 Z M332.041837,478.511632 C334.119228,478.511632 335.80884,476.946665 335.80884,475.021616 C335.80884,473.096567 334.119228,471.531599 332.041837,471.531599 C329.964446,471.531599 328.274835,473.096567 328.274835,475.021616 C328.274835,476.946665 329.964446,478.511632 332.041837,478.511632 Z M335.864237,502 L335.864237,480.727516 L328.219438,480.727516 L328.219438,502 L335.864237,502 Z M346.386964,509.977181 L346.386964,498.509983 L346.497758,498.509983 C347.384112,500.67047 349.433804,502.276985 352.425247,502.276985 C356.967809,502.276985 360.790208,498.731571 360.790208,491.363758 C360.790208,483.663562 356.690824,480.450531 352.480644,480.450531 C349.32301,480.450531 347.328715,482.278635 346.497758,484.439121 L346.331567,484.439121 L346.331567,480.727516 L338.742165,480.727516 L338.742165,509.977181 L346.386964,509.977181 Z M349.599996,496.404894 C347.494906,496.404894 346.220773,494.465995 346.220773,491.363758 C346.220773,488.206124 347.494906,486.322623 349.599996,486.322623 C351.705085,486.322623 352.923821,488.206124 352.923821,491.363758 C352.923821,494.521392 351.705085,496.404894 349.599996,496.404894 Z M378.622746,502 L378.622746,486.267226 L382.500542,486.267226 L382.500542,480.727516 L378.622746,480.727516 L378.622746,479.785766 C378.622746,478.788618 379.010525,478.123853 380.45085,478.123853 C381.004821,478.123853 381.835777,478.234647 382.389748,478.400838 L383.49769,472.916526 C382.611336,472.694938 380.561644,472.307158 378.622746,472.307158 C373.96939,472.307158 370.977947,474.855424 370.977947,480.118148 L370.977947,480.727516 L368.263489,480.727516 L368.263489,486.267226 L370.977947,486.267226 L370.977947,502 L378.622746,502 Z M394.020457,502.38778 C400.945094,502.38778 405.044479,497.956012 405.044479,491.419155 C405.044479,484.882298 400.945094,480.450531 394.020457,480.450531 C387.09582,480.450531 382.996436,484.882298 382.996436,491.419155 C382.996436,497.956012 387.09582,502.38778 394.020457,502.38778 Z M394.075854,496.737276 C392.026162,496.737276 390.807426,494.701433 390.807426,491.363758 C390.807426,488.026083 392.026162,485.99024 394.075854,485.99024 C396.014752,485.99024 397.233489,488.026083 397.233489,491.363758 C397.233489,494.701433 396.014752,496.737276 394.075854,496.737276 Z M414.791794,502 L414.791794,490.920581 C414.791794,488.483109 416.467556,486.876594 418.724987,486.876594 C419.514396,486.876594 420.788529,487.001237 421.550239,487.264373 L421.550239,480.741365 C420.940871,480.561325 420.276106,480.450531 419.611341,480.450531 C417.34006,480.450531 415.567353,481.780061 414.791794,484.771504 L414.570205,484.771504 L414.570205,480.727516 L407.146995,480.727516 L407.146995,502 L414.791794,502 Z M446.803128,502.38778 C453.727764,502.38778 457.827149,497.956012 457.827149,491.419155 C457.827149,484.882298 453.727764,480.450531 446.803128,480.450531 C439.878491,480.450531 435.779106,484.882298 435.779106,491.419155 C435.779106,497.956012 439.878491,502.38778 446.803128,502.38778 Z M446.858525,496.737276 C444.808832,496.737276 443.590096,494.701433 443.590096,491.363758 C443.590096,488.026083 444.808832,485.99024 446.858525,485.99024 C448.797423,485.99024 450.016159,488.026083 450.016159,491.363758 C450.016159,494.701433 448.797423,496.737276 446.858525,496.737276 Z M467.574464,502 L467.574464,490.034228 C467.588313,487.929138 468.779351,486.655005 470.676701,486.655005 C472.60175,486.655005 473.737391,487.929138 473.723542,490.034228 L473.723542,502 L481.368389,502 L481.368389,488.427712 C481.38219,483.802055 478.459993,480.450531 473.94513,480.450531 C470.815194,480.450531 468.336174,482.084745 467.408273,484.771504 L467.186685,484.771504 L467.186685,480.727516 L459.929665,480.727516 L459.929665,502 L467.574464,502 Z M494.328696,502.38778 C500.228487,502.38778 504.023188,499.562528 504.74335,495.13076 L497.763316,495.13076 C497.320139,496.335647 496.059856,497.014262 494.494888,497.014262 C492.223607,497.014262 490.894077,495.51854 490.894077,493.468848 L490.894077,493.136465 L504.74335,493.136465 L504.74335,491.363758 C504.74335,484.591463 500.588568,480.450531 494.162505,480.450531 C487.570251,480.450531 483.360072,484.826901 483.360072,491.419155 C483.360072,498.302244 487.514854,502.38778 494.328696,502.38778 Z M497.707919,488.926286 L490.894077,488.926286 C490.935624,487.084333 492.459044,485.824049 494.328696,485.824049 C496.226047,485.824049 497.666371,487.098182 497.707919,488.926286 Z M314.702305,553.977181 L314.702305,542.509983 L314.813099,542.509983 C315.699453,544.67047 317.749145,546.276985 320.740588,546.276985 C325.28315,546.276985 329.105549,542.731571 329.105549,535.363758 C329.105549,527.663562 325.006164,524.450531 320.795985,524.450531 C317.638351,524.450531 315.644056,526.278635 314.813099,528.439121 L314.646908,528.439121 L314.646908,524.727516 L307.057506,524.727516 L307.057506,553.977181 L314.702305,553.977181 Z M317.915337,540.404894 C315.810247,540.404894 314.536114,538.465995 314.536114,535.363758 C314.536114,532.206124 315.810247,530.322623 317.915337,530.322623 C320.020426,530.322623 321.239162,532.206124 321.239162,535.363758 C321.239162,538.521392 320.020426,540.404894 317.915337,540.404894 Z M338.963669,546 L338.963669,517.636688 L331.31887,517.636688 L331.31887,546 L338.963669,546 Z M347.769086,546.332383 C350.538941,546.332383 352.630181,545.390632 353.918163,543.008557 L354.084355,543.008557 L354.084355,546 L361.23058,546 L361.23058,531.430564 C361.23058,527.497371 357.505125,524.450531 351.425294,524.450531 C345.068478,524.450531 341.938542,527.774356 341.675406,531.652153 L348.710837,531.652153 C348.890877,530.336472 349.860326,529.713255 351.3145,529.713255 C352.64403,529.713255 353.585781,530.322623 353.585781,531.430564 L353.585781,531.485962 C353.585781,532.718547 352.228552,533.106327 348.65544,533.369463 C344.26522,533.687996 340.844449,535.460703 340.844449,540.127908 C340.844449,544.365786 343.6974,546.332383 347.769086,546.332383 Z M350.261955,541.512835 C348.960124,541.512835 348.046072,540.875769 348.046072,539.684731 C348.046072,538.590639 348.821631,537.745833 350.594338,537.468848 C351.813074,537.274958 352.83792,537.025671 353.641178,536.693288 L353.641178,538.465995 C353.641178,540.404894 351.993114,541.512835 350.261955,541.512835 Z M373.24916,546.304684 C374.98032,546.207739 376.268302,545.847658 376.960766,545.639919 L375.852824,540.266401 C375.561989,540.335647 374.814128,540.487989 374.357102,540.487989 C373.359955,540.487989 372.916778,540.044812 372.916778,539.158459 L372.916778,530.267226 L376.572986,530.267226 L376.572986,524.727516 L372.916778,524.727516 L372.916778,519.630984 L365.271979,519.630984 L365.271979,524.727516 L362.557521,524.727516 L362.557521,530.267226 L365.271979,530.267226 L365.271979,539.878621 C365.216582,544.338087 367.972587,546.595519 373.24916,546.304684 Z M387.538939,546 L387.538939,530.267226 L391.416735,530.267226 L391.416735,524.727516 L387.538939,524.727516 L387.538939,523.785766 C387.538939,522.788618 387.926719,522.123853 389.367043,522.123853 C389.921014,522.123853 390.75197,522.234647 391.305941,522.400838 L392.413883,516.916526 C391.52753,516.694938 389.477837,516.307158 387.538939,516.307158 C382.885583,516.307158 379.89414,518.855424 379.89414,524.118148 L379.89414,524.727516 L377.179682,524.727516 L377.179682,530.267226 L379.89414,530.267226 L379.89414,546 L387.538939,546 Z M402.93665,546.38778 C409.861287,546.38778 413.960672,541.956012 413.960672,535.419155 C413.960672,528.882298 409.861287,524.450531 402.93665,524.450531 C396.012014,524.450531 391.912629,528.882298 391.912629,535.419155 C391.912629,541.956012 396.012014,546.38778 402.93665,546.38778 Z M402.992047,540.737276 C400.942355,540.737276 399.723619,538.701433 399.723619,535.363758 C399.723619,532.026083 400.942355,529.99024 402.992047,529.99024 C404.930946,529.99024 406.149682,532.026083 406.149682,535.363758 C406.149682,538.701433 404.930946,540.737276 402.992047,540.737276 Z M423.707987,546 L423.707987,534.920581 C423.707987,532.483109 425.383749,530.876594 427.641181,530.876594 C428.430589,530.876594 429.704722,531.001237 430.466432,531.264373 L430.466432,524.741365 C429.857064,524.561325 429.192299,524.450531 428.527534,524.450531 C426.256253,524.450531 424.483546,525.780061 423.707987,528.771504 L423.486399,528.771504 L423.486399,524.727516 L416.063188,524.727516 L416.063188,546 L423.707987,546 Z M439.604294,546 L439.604294,533.591051 C439.604294,531.735248 440.573743,530.599608 442.15256,530.599608 C443.731377,530.599608 444.756223,531.735248 444.756223,533.591051 L444.756223,546 L452.06864,546 L452.06864,533.591051 C452.06864,531.735248 453.038089,530.599608 454.616906,530.599608 C456.195723,530.599608 457.220569,531.735248 457.220569,533.591051 L457.220569,546 L464.865368,546 L464.865368,531.652153 C464.865368,527.289632 462.067815,524.450531 457.996129,524.450531 C454.838494,524.450531 452.290228,526.167841 451.570066,528.771504 L451.348478,528.771504 C450.905301,526.167841 448.523226,524.450531 445.531783,524.450531 C442.581887,524.450531 440.324456,526.112444 439.438102,528.771504 L439.216514,528.771504 L439.216514,524.727516 L431.959495,524.727516 L431.959495,546 L439.604294,546 Z M471.787572,546.443177 C473.823415,546.443177 475.63767,544.725867 475.665369,542.56538 C475.63767,540.460291 473.823415,538.742981 471.787572,538.742981 C469.640935,538.742981 467.882077,540.460291 467.909776,542.56538 C467.882077,544.725867 469.640935,546.443177 471.787572,546.443177 Z" id="Shipforoneplatform." fill="#FFFFFF" fill-rule="nonzero"></path>
        <path d="M518.293867,641 L522.866258,625.968922 L523.076483,625.968922 L527.648874,641 L534.638851,641 L542.574839,614.091217 L534.428626,614.091217 L530.749691,630.698982 L530.539466,630.698982 L526.1773,614.091217 L519.765441,614.091217 L515.403275,630.646425 L515.19305,630.646425 L511.514115,614.091217 L503.367902,614.091217 L511.30389,641 L518.293867,641 Z M550.126713,641 L550.126713,630.488757 C550.126713,628.176283 551.716539,626.652153 553.858204,626.652153 C554.60713,626.652153 555.815923,626.770404 556.538571,627.020046 L556.538571,620.831552 C555.960453,620.660744 555.329778,620.555632 554.699104,620.555632 C552.544299,620.555632 550.8625,621.816981 550.126713,624.655017 L549.916488,624.655017 L549.916488,620.818413 L542.873955,620.818413 L542.873955,641 L550.126713,641 Z M561.620038,618.716164 C563.590896,618.716164 565.19386,617.231451 565.19386,615.405122 C565.19386,613.578794 563.590896,612.094081 561.620038,612.094081 C559.649179,612.094081 558.046215,613.578794 558.046215,615.405122 C558.046215,617.231451 559.649179,618.716164 561.620038,618.716164 Z M565.246416,641 L565.246416,620.818413 L557.993659,620.818413 L557.993659,641 L565.246416,641 Z M576.897351,641.289059 C578.539733,641.197086 579.761665,640.85547 580.418618,640.658385 L579.367494,635.560432 C579.091573,635.626127 578.382065,635.770656 577.948476,635.770656 C577.002464,635.770656 576.582014,635.350207 576.582014,634.509307 L576.582014,626.074034 L580.050724,626.074034 L580.050724,620.818413 L576.582014,620.818413 L576.582014,615.983241 L569.329256,615.983241 L569.329256,620.818413 L566.754002,620.818413 L566.754002,626.074034 L569.329256,626.074034 L569.329256,635.192538 C569.2767,639.423313 571.891372,641.564979 576.897351,641.289059 Z M591.544035,641.367894 C597.141272,641.367894 600.741372,638.687526 601.424603,634.483029 L594.80252,634.483029 C594.38207,635.626127 593.186416,636.26994 591.701703,636.26994 C589.546898,636.26994 588.285549,634.850923 588.285549,632.906343 L588.285549,632.591005 L601.424603,632.591005 L601.424603,630.909206 C601.424603,624.484209 597.482887,620.555632 591.386366,620.555632 C585.132176,620.555632 581.137904,624.707573 581.137904,630.961763 C581.137904,637.491873 585.07962,641.367894 591.544035,641.367894 Z M594.749964,628.596733 L588.285549,628.596733 C588.324966,626.849239 589.770262,625.653585 591.544035,625.653585 C593.344085,625.653585 594.710547,626.862378 594.749964,628.596733 Z M619.628611,641.367894 C626.198139,641.367894 630.087299,637.163396 630.087299,630.961763 C630.087299,624.760129 626.198139,620.555632 619.628611,620.555632 C613.059084,620.555632 609.169924,624.760129 609.169924,630.961763 C609.169924,637.163396 613.059084,641.367894 619.628611,641.367894 Z M619.681168,636.007159 C617.736588,636.007159 616.580351,634.075718 616.580351,630.909206 C616.580351,627.742694 617.736588,625.811253 619.681168,625.811253 C621.520635,625.811253 622.676872,627.742694 622.676872,630.909206 C622.676872,634.075718 621.520635,636.007159 619.681168,636.007159 Z M639.373343,641 L639.373343,629.647857 C639.386482,627.650721 640.516441,626.441928 642.316491,626.441928 C644.14282,626.441928 645.220222,627.650721 645.207083,629.647857 L645.207083,641 L652.459888,641 L652.459888,628.123727 C652.47298,623.735283 649.70064,620.555632 645.417308,620.555632 C642.447882,620.555632 640.095991,622.10604 639.215675,624.655017 L639.00545,624.655017 L639.00545,620.818413 L632.120585,620.818413 L632.120585,641 L639.373343,641 Z M664.846712,641.367894 C670.824981,641.367894 674.490778,637.9386 674.569612,632.591005 L667.842416,632.591005 C667.684747,634.706393 666.54165,635.849491 664.951824,635.849491 C663.046661,635.849491 661.798451,634.220248 661.798451,630.909206 C661.798451,627.598165 663.046661,625.968922 664.951824,625.968922 C666.554789,625.968922 667.64533,627.11202 667.842416,629.227407 L674.569612,629.227407 C674.530195,623.971786 670.785564,620.555632 664.846712,620.555632 C658.277185,620.555632 654.388025,624.760129 654.388025,630.961763 C654.388025,637.163396 658.277185,641.367894 664.846712,641.367894 Z M686.325791,641.367894 C691.923028,641.367894 695.523129,638.687526 696.20636,634.483029 L689.584276,634.483029 C689.163827,635.626127 687.968173,636.26994 686.48346,636.26994 C684.328655,636.26994 683.067305,634.850923 683.067305,632.906343 L683.067305,632.591005 L696.20636,632.591005 L696.20636,630.909206 C696.20636,624.484209 692.264643,620.555632 686.168122,620.555632 C679.913932,620.555632 675.91966,624.707573 675.91966,630.961763 C675.91966,637.491873 679.861376,641.367894 686.325791,641.367894 Z M689.53172,628.596733 L683.067305,628.596733 C683.106723,626.849239 684.552019,625.653585 686.325791,625.653585 C688.125841,625.653585 689.492303,626.862378 689.53172,628.596733 Z M702.654361,647.569527 C703.285036,646.111092 704.90114,642.589826 705.17706,638.792639 L705.282172,637.321065 L699.816326,637.321065 L699.816326,638.792639 C699.816326,642.366462 698.607533,646.111092 698.187083,647.569527 L702.654361,647.569527 Z M507.772946,689 L507.772946,674.074034 L511.451881,674.074034 L511.451881,668.818413 L507.772946,668.818413 L507.772946,667.924957 C507.772946,666.978945 508.14084,666.348271 509.507301,666.348271 C510.032863,666.348271 510.821207,666.453383 511.346769,666.611052 L512.397893,661.407986 C511.556994,661.197761 509.612414,660.829868 507.772946,660.829868 C503.358224,660.829868 500.520188,663.247454 500.520188,668.240294 L500.520188,668.818413 L497.944934,668.818413 L497.944934,674.074034 L500.520188,674.074034 L500.520188,689 L507.772946,689 Z M522.367067,689.367894 C527.964304,689.367894 531.564405,686.687526 532.247636,682.483029 L525.625552,682.483029 C525.205103,683.626127 524.009449,684.26994 522.524736,684.26994 C520.369931,684.26994 519.108582,682.850923 519.108582,680.906343 L519.108582,680.591005 L532.247636,680.591005 L532.247636,678.909206 C532.247636,672.484209 528.305919,668.555632 522.209398,668.555632 C515.955209,668.555632 511.960936,672.707573 511.960936,678.961763 C511.960936,685.491873 515.902652,689.367894 522.367067,689.367894 Z M525.572996,676.596733 L519.108582,676.596733 C519.147999,674.849239 520.593295,673.653585 522.367067,673.653585 C524.167117,673.653585 525.533579,674.862378 525.572996,676.596733 Z M543.951259,689.367894 C549.548496,689.367894 553.148597,686.687526 553.831828,682.483029 L547.209745,682.483029 C546.789295,683.626127 545.593641,684.26994 544.108928,684.26994 C541.954123,684.26994 540.692774,682.850923 540.692774,680.906343 L540.692774,680.591005 L553.831828,680.591005 L553.831828,678.909206 C553.831828,672.484209 549.890112,668.555632 543.79359,668.555632 C537.539401,668.555632 533.545128,672.707573 533.545128,678.961763 C533.545128,685.491873 537.486844,689.367894 543.951259,689.367894 Z M547.157188,676.596733 L540.692774,676.596733 C540.732191,674.849239 542.177487,673.653585 543.951259,673.653585 C545.75131,673.653585 547.117771,674.862378 547.157188,676.596733 Z M563.117865,689 L563.117865,662.091217 L555.865107,662.091217 L555.865107,689 L563.117865,689 Z M575.136694,689.367894 C580.720792,689.367894 584.833316,686.648109 584.859594,682.32536 C584.833316,679.342795 582.83618,677.60844 578.710517,676.859514 L574.611132,676.123727 C573.073862,675.847807 572.640273,675.295966 572.666552,674.704709 C572.640273,673.86381 573.678259,673.390804 574.926469,673.390804 C576.358626,673.390804 577.55428,674.152869 577.659392,675.38794 L584.334032,675.38794 C584.150085,671.117747 580.60254,668.555632 574.7688,668.555632 C569.000755,668.555632 565.440072,670.920661 565.46635,675.125159 C565.440072,678.30481 567.502903,680.341363 571.615427,681.064011 L575.18925,681.694686 C576.765936,681.983745 577.475445,682.404195 577.501724,683.16626 C577.475445,684.007159 576.516294,684.480165 575.18925,684.480165 C573.546868,684.480165 572.390631,683.770656 572.193546,682.483029 L564.993344,682.483029 C565.387516,686.621831 568.961338,689.367894 575.136694,689.367894 Z M600.435783,689 L600.435783,677.647857 C600.448922,675.650721 601.578881,674.441928 603.378931,674.441928 C605.205259,674.441928 606.282662,675.650721 606.269523,677.647857 L606.269523,689 L613.522327,689 L613.522327,676.123727 C613.53542,671.735283 610.763079,668.555632 606.479748,668.555632 C603.510321,668.555632 601.158431,670.10604 600.278114,672.655017 L600.067889,672.655017 L600.067889,668.818413 L593.183025,668.818413 L593.183025,689 L600.435783,689 Z M621.809766,689.315337 C624.437577,689.315337 626.421574,688.421882 627.643506,686.161964 L627.801175,686.161964 L627.801175,689 L634.580927,689 L634.580927,675.177715 C634.580927,671.446224 631.046521,668.555632 625.278477,668.555632 C619.247651,668.555632 616.278225,671.709005 616.028583,675.38794 L622.703222,675.38794 C622.87403,674.13973 623.793764,673.548472 625.173364,673.548472 C626.434713,673.548472 627.328169,674.126591 627.328169,675.177715 L627.328169,675.230271 C627.328169,676.399647 626.040542,676.767541 622.650666,677.017183 C618.485586,677.319381 615.240239,679.00118 615.240239,683.429041 C615.240239,687.449592 617.946884,689.315337 621.809766,689.315337 Z M624.174796,684.742946 C622.939725,684.742946 622.072547,684.13855 622.072547,683.008591 C622.072547,681.970606 622.808334,681.169124 624.490133,680.906343 C625.64637,680.722396 626.61866,680.485893 627.380725,680.170556 L627.380725,681.852355 C627.380725,683.691822 625.817178,684.742946 624.174796,684.742946 Z M646.021762,689.289059 C647.664144,689.197086 648.886076,688.85547 649.543029,688.658385 L648.491904,683.560432 C648.215984,683.626127 647.506475,683.770656 647.072886,683.770656 C646.126875,683.770656 645.706425,683.350207 645.706425,682.509307 L645.706425,674.074034 L649.175135,674.074034 L649.175135,668.818413 L645.706425,668.818413 L645.706425,663.983241 L638.453667,663.983241 L638.453667,668.818413 L635.878412,668.818413 L635.878412,674.074034 L638.453667,674.074034 L638.453667,683.192538 C638.401111,687.423313 641.015783,689.564979 646.021762,689.289059 Z M654.834708,666.716164 C656.805566,666.716164 658.40853,665.231451 658.40853,663.405122 C658.40853,661.578794 656.805566,660.094081 654.834708,660.094081 C652.86385,660.094081 651.260885,661.578794 651.260885,663.405122 C651.260885,665.231451 652.86385,666.716164 654.834708,666.716164 Z M658.461087,689 L658.461087,668.818413 L651.208329,668.818413 L651.208329,689 L658.461087,689 Z M674.789525,689 L681.569277,668.818413 L673.948625,668.818413 L670.69014,682.167692 L670.479915,682.167692 L667.22143,668.818413 L659.600778,668.818413 L666.38053,689 L674.789525,689 Z M691.748762,689.367894 C697.345999,689.367894 700.946099,686.687526 701.62933,682.483029 L695.007247,682.483029 C694.586797,683.626127 693.391143,684.26994 691.90643,684.26994 C689.751625,684.26994 688.490276,682.850923 688.490276,680.906343 L688.490276,680.591005 L701.62933,680.591005 L701.62933,678.909206 C701.62933,672.484209 697.687614,668.555632 691.591093,668.555632 C685.336903,668.555632 681.342631,672.707573 681.342631,678.961763 C681.342631,685.491873 685.284347,689.367894 691.748762,689.367894 Z M694.954691,676.596733 L688.490276,676.596733 C688.529693,674.849239 689.974989,673.653585 691.748762,673.653585 C693.548812,673.653585 694.915274,674.862378 694.954691,676.596733 Z M707.604326,689.42045 C709.535767,689.42045 711.256983,687.791207 711.283261,685.741515 C711.256983,683.744378 709.535767,682.115136 707.604326,682.115136 C705.567773,682.115136 703.899113,683.744378 703.925391,685.741515 C703.899113,687.791207 705.567773,689.42045 707.604326,689.42045 Z" id="Writeonce,feelsnative." fill="#7F7F7F" fill-rule="nonzero"></path>
        <path d="M368.068495,668.261361 C368.909395,668.261361 369.47757,668.102272 369.863929,667.954546 L369.432116,666.125021 C369.148028,666.204566 368.784396,666.284111 368.250311,666.284111 C366.875327,666.284111 365.613978,665.636391 365.613978,663.443234 L365.613978,652.306998 L369.307117,652.306998 L369.307117,650.545654 L365.613978,650.545654 L365.613978,646.363884 L363.57991,646.363884 L363.57991,650.545654 L360.977667,650.545654 L360.977667,652.306998 L363.57991,652.306998 L363.57991,663.920501 C363.57991,666.772741 365.829884,668.261361 368.068495,668.261361 Z M375.49731,668 L375.49731,657.091034 C375.49731,654.045614 377.542741,652.170636 380.338163,652.170636 C383.042678,652.170636 384.769931,653.943343 384.769931,656.81831 L384.769931,668 L386.803998,668 L386.803998,656.693311 C386.803998,652.534268 384.394935,650.318384 380.849521,650.318384 C378.213188,650.318384 376.497298,651.477462 375.679126,653.284259 L375.49731,653.284259 L375.49731,644.727539 L373.474605,644.727539 L373.474605,668 L375.49731,668 Z M398.414661,668.363632 C401.914621,668.363632 404.266867,666.465927 405.062313,664.27277 L403.14188,663.647777 C402.471433,665.215941 400.891906,666.511381 398.414661,666.511381 C394.84652,666.511381 392.585183,663.909138 392.494275,659.875093 L405.494126,659.875093 L405.494126,658.875104 C405.494126,653.045626 401.891894,650.307021 398.107847,650.307021 C393.585171,650.307021 390.460207,654.091068 390.460207,659.375099 C390.460207,664.670493 393.528354,668.363632 398.414661,668.363632 Z M403.425968,658.091022 L392.505638,658.091022 C392.721545,654.84106 394.914701,652.147909 398.107847,652.147909 C401.232811,652.147909 403.425968,654.727425 403.425968,658.091022 Z M411.173038,668 L411.173038,657.091034 C411.173038,654.045614 413.173015,652.170636 415.922983,652.170636 C418.604771,652.170636 420.332024,653.96607 420.332024,656.81831 L420.332024,668 L422.354728,668 L422.354728,656.693311 C422.354728,652.556995 419.957028,650.318384 416.434341,650.318384 C413.877552,650.318384 412.116209,651.500189 411.298036,653.284259 L411.11622,653.284259 L411.11622,650.545654 L409.150333,650.545654 L409.150333,668 L411.173038,668 Z" id="then" fill="#535353" fill-rule="nonzero"></path>
        <path d="M773.32154,668.261361 C774.16244,668.261361 774.730615,668.102272 775.116974,667.954546 L774.685161,666.125021 C774.401073,666.204566 774.037441,666.284111 773.503356,666.284111 C772.128372,666.284111 770.867023,665.636391 770.867023,663.443234 L770.867023,652.306998 L774.560162,652.306998 L774.560162,650.545654 L770.867023,650.545654 L770.867023,646.363884 L768.832955,646.363884 L768.832955,650.545654 L766.230712,650.545654 L766.230712,652.306998 L768.832955,652.306998 L768.832955,663.920501 C768.832955,666.772741 771.082929,668.261361 773.32154,668.261361 Z M784.966209,668.363632 C789.488885,668.363632 792.64794,664.670493 792.64794,659.352372 C792.64794,654.00016 789.488885,650.307021 784.966209,650.307021 C780.443534,650.307021 777.284479,654.00016 777.284479,659.352372 C777.284479,664.670493 780.443534,668.363632 784.966209,668.363632 Z M784.966209,666.511381 C781.341251,666.511381 779.318547,663.261418 779.318547,659.352372 C779.318547,655.443326 781.341251,652.147909 784.966209,652.147909 C788.591168,652.147909 790.613872,655.443326 790.613872,659.352372 C790.613872,663.261418 788.591168,666.511381 784.966209,666.511381 Z M807.823795,668 L807.835159,652.306998 L811.698751,652.306998 L811.698751,650.545654 L807.835159,650.545654 L807.835159,648.409315 C807.835159,646.579791 808.823784,645.557075 810.585127,645.557075 C811.255574,645.557075 811.66466,645.704801 811.971475,645.807072 L812.562377,644.034365 C812.153291,643.863913 811.471481,643.648006 810.403311,643.648006 C808.028338,643.648006 805.801091,645.170716 805.801091,647.988865 L805.801091,650.545654 L803.119304,650.545654 L803.119304,652.306998 L805.801091,652.306998 L805.801091,668 L807.823795,668 Z M816.013958,647.545689 C816.843494,647.545689 817.536668,646.886605 817.536668,646.09116 C817.536668,645.295714 816.843494,644.636631 816.013958,644.636631 C815.184422,644.636631 814.502611,645.295714 814.502611,646.09116 C814.502611,646.886605 815.184422,647.545689 816.013958,647.545689 Z M817.013946,668 L817.013946,650.545654 L814.979879,650.545654 L814.979879,668 L817.013946,668 Z M822.840456,668 L827.340404,660.795537 L831.840353,668 L834.192599,668 L828.579027,659.272827 L834.192599,650.545654 L831.840353,650.545654 L827.340404,657.988751 L822.840456,650.545654 L820.499574,650.545654 L826.044965,659.272827 L820.499574,668 L822.840456,668 Z" id="tofix" fill="#535353" fill-rule="nonzero"></path>
        <path d="M576.364904,860.332383 C583.552677,860.332383 587.859801,857.230145 587.887499,851.635039 C587.859801,847.314066 585.283836,844.281075 579.023965,842.937695 L576.697287,842.439121 C574.010528,841.871301 572.805641,841.081893 572.874887,839.724664 C572.888736,838.478229 573.927432,837.564177 576.309507,837.564177 C578.802376,837.564177 579.979564,838.65827 580.131906,840.500223 L587.49972,840.500223 C587.472021,834.932815 583.178747,831.248909 576.309507,831.248909 C569.564911,831.248909 564.800761,834.877418 564.842309,840.278635 C564.828459,844.710402 567.902998,847.175573 572.930284,848.255816 L575.755536,848.865184 C578.91317,849.557648 579.993414,850.347056 580.021112,851.635039 C579.993414,853.033816 578.71928,854.017114 576.25411,854.017114 C573.304215,854.017114 571.559206,852.632187 571.434563,850.028523 L564.122146,850.028523 C564.149845,857.14705 568.969392,860.332383 576.364904,860.332383 Z M597.579436,860 L597.579436,848.034228 C597.593285,845.929138 598.812021,844.655005 600.681673,844.655005 C602.634421,844.655005 603.742362,845.929138 603.728513,848.034228 L603.728513,860 L611.373361,860 L611.373361,846.427712 C611.387161,841.774356 608.451115,838.450531 603.950102,838.450531 C600.806316,838.450531 598.479639,840.057046 597.524039,842.771504 L597.30245,842.771504 L597.30245,831.636688 L589.934637,831.636688 L589.934637,860 L597.579436,860 Z M617.963002,836.511632 C620.040393,836.511632 621.730005,834.946665 621.730005,833.021616 C621.730005,831.096567 620.040393,829.531599 617.963002,829.531599 C615.885611,829.531599 614.196,831.096567 614.196,833.021616 C614.196,834.946665 615.885611,836.511632 617.963002,836.511632 Z M621.785402,860 L621.785402,838.727516 L614.140603,838.727516 L614.140603,860 L621.785402,860 Z M632.308129,867.977181 L632.308129,856.509983 L632.418923,856.509983 C633.305277,858.67047 635.354969,860.276985 638.346412,860.276985 C642.888974,860.276985 646.711373,856.731571 646.711373,849.363758 C646.711373,841.663562 642.611988,838.450531 638.401809,838.450531 C635.244175,838.450531 633.24988,840.278635 632.418923,842.439121 L632.252732,842.439121 L632.252732,838.727516 L624.66333,838.727516 L624.66333,867.977181 L632.308129,867.977181 Z M635.52116,854.404894 C633.416071,854.404894 632.141938,852.465995 632.141938,849.363758 C632.141938,846.206124 633.416071,844.322623 635.52116,844.322623 C637.62625,844.322623 638.844986,846.206124 638.844986,849.363758 C638.844986,852.521392 637.62625,854.404894 635.52116,854.404894 Z M514.909662,904.38778 C520.809453,904.38778 524.604154,901.562528 525.324316,897.13076 L518.344282,897.13076 C517.901105,898.335647 516.640821,899.014262 515.075854,899.014262 C512.804573,899.014262 511.475043,897.51854 511.475043,895.468848 L511.475043,895.136465 L525.324316,895.136465 L525.324316,893.363758 C525.324316,886.591463 521.169534,882.450531 514.743471,882.450531 C508.151217,882.450531 503.941038,886.826901 503.941038,893.419155 C503.941038,900.302244 508.09582,904.38778 514.909662,904.38778 Z M518.288885,890.926286 L511.475043,890.926286 C511.51659,889.084333 513.04001,887.824049 514.909662,887.824049 C516.807013,887.824049 518.247337,889.098182 518.288885,890.926286 Z M541.165297,904 L548.311522,882.727516 L540.278944,882.727516 L536.844324,896.798378 L536.622736,896.798378 L533.188116,882.727516 L525.155537,882.727516 L532.301762,904 L541.165297,904 Z M559.000571,904.38778 C564.900362,904.38778 568.695063,901.562528 569.415225,897.13076 L562.435191,897.13076 C561.992014,898.335647 560.731731,899.014262 559.166763,899.014262 C556.895482,899.014262 555.565952,897.51854 555.565952,895.468848 L555.565952,895.136465 L569.415225,895.136465 L569.415225,893.363758 C569.415225,886.591463 565.260443,882.450531 558.83438,882.450531 C552.242126,882.450531 548.031947,886.826901 548.031947,893.419155 C548.031947,900.302244 552.186729,904.38778 559.000571,904.38778 Z M562.379794,890.926286 L555.565952,890.926286 C555.607499,889.084333 557.130919,887.824049 559.000571,887.824049 C560.897922,887.824049 562.338246,889.098182 562.379794,890.926286 Z M579.162532,904 L579.162532,892.920581 C579.162532,890.483109 580.838294,888.876594 583.095726,888.876594 C583.885135,888.876594 585.159268,889.001237 585.920978,889.264373 L585.920978,882.741365 C585.31161,882.561325 584.646845,882.450531 583.982079,882.450531 C581.710799,882.450531 579.938092,883.780061 579.162532,886.771504 L578.940944,886.771504 L578.940944,882.727516 L571.517733,882.727516 L571.517733,904 L579.162532,904 Z M592.732169,911.977181 C598.077988,911.977181 600.584707,909.290422 601.761895,905.772707 L609.517488,882.727516 L601.48491,882.727516 L597.994893,897.463143 L597.773304,897.463143 L594.338685,882.727516 L586.361503,882.727516 L593.840111,904.941751 L593.673919,905.32953 C593.161496,906.506718 591.679624,906.465171 589.796123,905.800406 L588.13421,911.229321 C589.325248,911.700196 590.973311,911.977181 592.732169,911.977181 Z M620.040354,904.304684 C621.771513,904.207739 623.059495,903.847658 623.751959,903.639919 L622.644017,898.266401 C622.353182,898.335647 621.605322,898.487989 621.148295,898.487989 C620.151148,898.487989 619.707971,898.044812 619.707971,897.158459 L619.707971,888.267226 L623.364179,888.267226 L623.364179,882.727516 L619.707971,882.727516 L619.707971,877.630984 L612.063172,877.630984 L612.063172,882.727516 L609.348715,882.727516 L609.348715,888.267226 L612.063172,888.267226 L612.063172,897.878621 C612.007775,902.338087 614.76378,904.595519 620.040354,904.304684 Z M633.554578,904 L633.554578,892.034228 C633.568427,889.929138 634.787163,888.655005 636.656815,888.655005 C638.609563,888.655005 639.717504,889.929138 639.703655,892.034228 L639.703655,904 L647.348503,904 L647.348503,890.427712 C647.362303,885.774356 644.426257,882.450531 639.925244,882.450531 C636.781459,882.450531 634.454781,884.057046 633.499181,886.771504 L633.277592,886.771504 L633.277592,875.636688 L625.909779,875.636688 L625.909779,904 L633.554578,904 Z M653.938144,880.511632 C656.015535,880.511632 657.705147,878.946665 657.705147,877.021616 C657.705147,875.096567 656.015535,873.531599 653.938144,873.531599 C651.860753,873.531599 650.171142,875.096567 650.171142,877.021616 C650.171142,878.946665 651.860753,880.511632 653.938144,880.511632 Z M657.760544,904 L657.760544,882.727516 L650.115745,882.727516 L650.115745,904 L657.760544,904 Z M668.283271,904 L668.283271,892.034228 C668.29712,889.929138 669.488158,888.655005 671.385508,888.655005 C673.310557,888.655005 674.446198,889.929138 674.432348,892.034228 L674.432348,904 L682.077196,904 L682.077196,890.427712 C682.090997,885.802055 679.1688,882.450531 674.653937,882.450531 C671.524001,882.450531 669.044981,884.084745 668.11708,886.771504 L667.895491,886.771504 L667.895491,882.727516 L660.638472,882.727516 L660.638472,904 L668.283271,904 Z M695.0929,912.420358 C701.823647,912.420358 706.283113,909.34582 706.283113,903.944603 L706.283113,882.727516 L698.638314,882.727516 L698.638314,886.439121 L698.472123,886.439121 C697.641167,884.278635 695.646871,882.450531 692.489237,882.450531 C688.279058,882.450531 684.179673,885.663562 684.179673,893.363758 C684.179673,900.731571 688.002072,903.723015 692.544634,903.723015 C695.425283,903.723015 697.696564,902.504278 698.52752,900.343792 L698.749108,900.343792 L698.749108,903.944603 C698.749108,906.451321 697.294935,907.268429 695.314489,907.268429 C693.555631,907.268429 692.267649,906.742156 692.04606,905.384927 L684.678247,905.384927 C684.969081,909.484312 688.694536,912.420358 695.0929,912.420358 Z M695.369886,898.294099 C693.264796,898.294099 692.04606,896.521392 692.04606,893.363758 C692.04606,890.206124 693.264796,888.322623 695.369886,888.322623 C697.474975,888.322623 698.749108,890.206124 698.749108,893.363758 C698.749108,896.465995 697.474975,898.294099 695.369886,898.294099 Z M558.806689,948.304684 C560.537848,948.207739 561.82583,947.847658 562.518294,947.639919 L561.410352,942.266401 C561.119517,942.335647 560.371657,942.487989 559.914631,942.487989 C558.917483,942.487989 558.474306,942.044812 558.474306,941.158459 L558.474306,932.267226 L562.130514,932.267226 L562.130514,926.727516 L558.474306,926.727516 L558.474306,921.630984 L550.829507,921.630984 L550.829507,926.727516 L548.11505,926.727516 L548.11505,932.267226 L550.829507,932.267226 L550.829507,941.878621 C550.77411,946.338087 553.530116,948.595519 558.806689,948.304684 Z M576.254102,948 L579.245545,936.588199 L579.467133,936.588199 L582.458576,948 L590.712743,948 L596.030864,926.727516 L588.386065,926.727516 L586.059387,939.579642 L585.893196,939.579642 L583.067944,926.727516 L575.644734,926.727516 L572.930276,939.690436 L572.764085,939.690436 L570.326613,926.727516 L562.681814,926.727516 L567.999935,948 L576.254102,948 Z M601.180332,924.511632 C603.257723,924.511632 604.947334,922.946665 604.947334,921.021616 C604.947334,919.096567 603.257723,917.531599 601.180332,917.531599 C599.102941,917.531599 597.413329,919.096567 597.413329,921.021616 C597.413329,922.946665 599.102941,924.511632 601.180332,924.511632 Z M605.002731,948 L605.002731,926.727516 L597.357932,926.727516 L597.357932,948 L605.002731,948 Z M618.129122,948.38778 C624.430541,948.38778 628.294489,944.773119 628.377584,939.136465 L621.286756,939.136465 C621.120565,941.366198 619.915678,942.571085 618.239916,942.571085 C616.231771,942.571085 614.91609,940.853775 614.91609,937.363758 C614.91609,933.873741 616.231771,932.156431 618.239916,932.156431 C619.929527,932.156431 621.079017,933.361318 621.286756,935.591051 L628.377584,935.591051 C628.336036,930.051342 624.388993,926.450531 618.129122,926.450531 C611.204485,926.450531 607.1051,930.882298 607.1051,937.419155 C607.1051,943.956012 611.204485,948.38778 618.129122,948.38778 Z M640.728554,948.38778 C646.628345,948.38778 650.423046,945.562528 651.143208,941.13076 L644.163174,941.13076 C643.719997,942.335647 642.459714,943.014262 640.894746,943.014262 C638.623465,943.014262 637.293935,941.51854 637.293935,939.468848 L637.293935,939.136465 L651.143208,939.136465 L651.143208,937.363758 C651.143208,930.591463 646.988426,926.450531 640.562363,926.450531 C633.970109,926.450531 629.75993,930.826901 629.75993,937.419155 C629.75993,944.302244 633.914712,948.38778 640.728554,948.38778 Z M644.107777,934.926286 L637.293935,934.926286 C637.335482,933.084333 638.858902,931.824049 640.728554,931.824049 C642.625905,931.824049 644.066229,933.098182 644.107777,934.926286 Z M657.400498,948.443177 C659.436342,948.443177 661.250596,946.725867 661.278295,944.56538 C661.250596,942.460291 659.436342,940.742981 657.400498,940.742981 C655.253861,940.742981 653.495003,942.460291 653.522702,944.56538 C653.495003,946.725867 655.253861,948.443177 657.400498,948.443177 Z" id="Shipeverythingtwice." fill="#FFFFFF" fill-rule="nonzero"></path>
    </g>
</svg>